<svg width="437" height="132" viewBox="0 0 437 132" fill="none" xmlns="http://www.w3.org/2000/svg">
<path d="M401.036 61.2666C401.183 61.7989 401.734 62.111 402.267 61.9638L410.941 59.5645C411.473 59.4173 411.785 58.8664 411.638 58.3341C411.491 57.8018 410.94 57.4897 410.408 57.6369L402.697 59.7696L400.565 52.0591C400.417 51.5268 399.866 51.2147 399.334 51.3619C398.802 51.5091 398.49 52.06 398.637 52.5923L401.036 61.2666ZM435.13 0.506987L401.13 60.507L402.87 61.493L436.87 1.49301L435.13 0.506987Z" fill="#FE6E04"/>
<path d="M6.94531 87.5078V79.625H9.28125V87.5078C9.28125 88.2682 9.11458 88.9219 8.78125 89.4688C8.44792 90.0104 7.99219 90.4271 7.41406 90.7188C6.84115 91.0104 6.19531 91.1562 5.47656 91.1562C4.73177 91.1562 4.07292 91.0312 3.5 90.7812C2.92708 90.5312 2.47656 90.1484 2.14844 89.6328C1.82031 89.112 1.65625 88.4531 1.65625 87.6562H4.00781C4.00781 88.0729 4.0651 88.4036 4.17969 88.6484C4.29948 88.8932 4.46875 89.0677 4.6875 89.1719C4.90625 89.276 5.16927 89.3281 5.47656 89.3281C5.77344 89.3281 6.03125 89.2578 6.25 89.1172C6.46875 88.9766 6.63802 88.7708 6.75781 88.5C6.88281 88.2292 6.94531 87.8984 6.94531 87.5078ZM10.7812 86.8594V86.6953C10.7812 86.0755 10.8698 85.5052 11.0469 84.9844C11.224 84.4583 11.4818 84.0026 11.8203 83.6172C12.1589 83.2318 12.5755 82.9323 13.0703 82.7188C13.5651 82.5 14.1328 82.3906 14.7734 82.3906C15.4141 82.3906 15.9844 82.5 16.4844 82.7188C16.9844 82.9323 17.4036 83.2318 17.7422 83.6172C18.0859 84.0026 18.3464 84.4583 18.5234 84.9844C18.7005 85.5052 18.7891 86.0755 18.7891 86.6953V86.8594C18.7891 87.474 18.7005 88.0443 18.5234 88.5703C18.3464 89.0911 18.0859 89.5469 17.7422 89.9375C17.4036 90.3229 16.987 90.6224 16.4922 90.8359C15.9974 91.0495 15.4297 91.1562 14.7891 91.1562C14.1484 91.1562 13.5781 91.0495 13.0781 90.8359C12.5833 90.6224 12.1641 90.3229 11.8203 89.9375C11.4818 89.5469 11.224 89.0911 11.0469 88.5703C10.8698 88.0443 10.7812 87.474 10.7812 86.8594ZM13.0312 86.6953V86.8594C13.0312 87.2135 13.0625 87.5443 13.125 87.8516C13.1875 88.1589 13.2865 88.4297 13.4219 88.6641C13.5625 88.8932 13.7448 89.0729 13.9688 89.2031C14.1927 89.3333 14.4661 89.3984 14.7891 89.3984C15.1016 89.3984 15.3698 89.3333 15.5938 89.2031C15.8177 89.0729 15.9974 88.8932 16.1328 88.6641C16.2682 88.4297 16.3672 88.1589 16.4297 87.8516C16.4974 87.5443 16.5312 87.2135 16.5312 86.8594V86.6953C16.5312 86.3516 16.4974 86.0286 16.4297 85.7266C16.3672 85.4193 16.2656 85.1484 16.125 84.9141C15.9896 84.6745 15.8099 84.487 15.5859 84.3516C15.362 84.2161 15.0911 84.1484 14.7734 84.1484C14.4557 84.1484 14.1849 84.2161 13.9609 84.3516C13.7422 84.487 13.5625 84.6745 13.4219 84.9141C13.2865 85.1484 13.1875 85.4193 13.125 85.7266C13.0625 86.0286 13.0312 86.3516 13.0312 86.6953ZM22.5469 82.5469V91H20.2891V82.5469H22.5469ZM20.1484 80.3438C20.1484 80.0156 20.263 79.7448 20.4922 79.5312C20.7214 79.3177 21.0286 79.2109 21.4141 79.2109C21.7943 79.2109 22.099 79.3177 22.3281 79.5312C22.5625 79.7448 22.6797 80.0156 22.6797 80.3438C22.6797 80.6719 22.5625 80.9427 22.3281 81.1562C22.099 81.3698 21.7943 81.4766 21.4141 81.4766C21.0286 81.4766 20.7214 81.3698 20.4922 81.1562C20.263 80.9427 20.1484 80.6719 20.1484 80.3438ZM26.6094 84.3516V91H24.3594V82.5469H26.4688L26.6094 84.3516ZM26.2812 86.4766H25.6719C25.6719 85.8516 25.7526 85.2891 25.9141 84.7891C26.0755 84.2839 26.3021 83.8542 26.5938 83.5C26.8854 83.1406 27.2318 82.8672 27.6328 82.6797C28.0391 82.487 28.4922 82.3906 28.9922 82.3906C29.388 82.3906 29.75 82.4479 30.0781 82.5625C30.4062 82.6771 30.6875 82.8594 30.9219 83.1094C31.1615 83.3594 31.3438 83.6901 31.4688 84.1016C31.599 84.513 31.6641 85.0156 31.6641 85.6094V91H29.3984V85.6016C29.3984 85.2266 29.3464 84.9349 29.2422 84.7266C29.138 84.5182 28.9844 84.3724 28.7812 84.2891C28.5833 84.2005 28.3385 84.1562 28.0469 84.1562C27.7448 84.1562 27.4818 84.2161 27.2578 84.3359C27.0391 84.4557 26.8568 84.6224 26.7109 84.8359C26.5703 85.0443 26.4635 85.2891 26.3906 85.5703C26.3177 85.8516 26.2812 86.1536 26.2812 86.4766ZM42.3594 88.9766V82.5469H44.6094V91H42.4922L42.3594 88.9766ZM42.6094 87.2422L43.2734 87.2266C43.2734 87.7891 43.2083 88.3125 43.0781 88.7969C42.9479 89.276 42.7526 89.6927 42.4922 90.0469C42.2318 90.3958 41.9036 90.6693 41.5078 90.8672C41.112 91.0599 40.6458 91.1562 40.1094 91.1562C39.6979 91.1562 39.3177 91.099 38.9688 90.9844C38.625 90.8646 38.3281 90.6797 38.0781 90.4297C37.8333 90.1745 37.6406 89.849 37.5 89.4531C37.3646 89.0521 37.2969 88.5703 37.2969 88.0078V82.5469H39.5469V88.0234C39.5469 88.2734 39.5755 88.4844 39.6328 88.6562C39.6953 88.8281 39.7812 88.9688 39.8906 89.0781C40 89.1875 40.1276 89.2656 40.2734 89.3125C40.4245 89.3594 40.5911 89.3828 40.7734 89.3828C41.237 89.3828 41.6016 89.2891 41.8672 89.1016C42.138 88.9141 42.3281 88.6589 42.4375 88.3359C42.5521 88.0078 42.6094 87.6432 42.6094 87.2422ZM50.8984 88.6641C50.8984 88.5026 50.8516 88.3568 50.7578 88.2266C50.6641 88.0964 50.4896 87.9766 50.2344 87.8672C49.9844 87.7526 49.6224 87.6484 49.1484 87.5547C48.7214 87.4609 48.3229 87.3438 47.9531 87.2031C47.5885 87.0573 47.2708 86.8828 47 86.6797C46.7344 86.4766 46.526 86.237 46.375 85.9609C46.224 85.6797 46.1484 85.3594 46.1484 85C46.1484 84.6458 46.224 84.3125 46.375 84C46.5312 83.6875 46.7526 83.4115 47.0391 83.1719C47.3307 82.9271 47.6849 82.737 48.1016 82.6016C48.5234 82.4609 48.9974 82.3906 49.5234 82.3906C50.2578 82.3906 50.888 82.5078 51.4141 82.7422C51.9453 82.9766 52.3516 83.2995 52.6328 83.7109C52.9193 84.1172 53.0625 84.5807 53.0625 85.1016H50.8125C50.8125 84.8828 50.7656 84.6875 50.6719 84.5156C50.5833 84.3385 50.4427 84.2005 50.25 84.1016C50.0625 83.9974 49.8177 83.9453 49.5156 83.9453C49.2656 83.9453 49.0495 83.9896 48.8672 84.0781C48.6849 84.1615 48.5443 84.276 48.4453 84.4219C48.3516 84.5625 48.3047 84.7188 48.3047 84.8906C48.3047 85.0208 48.3307 85.138 48.3828 85.2422C48.4401 85.3411 48.5312 85.4323 48.6562 85.5156C48.7812 85.599 48.9427 85.6771 49.1406 85.75C49.3438 85.8177 49.5938 85.8802 49.8906 85.9375C50.5 86.0625 51.0443 86.2266 51.5234 86.4297C52.0026 86.6276 52.3828 86.8984 52.6641 87.2422C52.9453 87.5807 53.0859 88.026 53.0859 88.5781C53.0859 88.9531 53.0026 89.2969 52.8359 89.6094C52.6693 89.9219 52.4297 90.1953 52.1172 90.4297C51.8047 90.6589 51.4297 90.8385 50.9922 90.9688C50.5599 91.0938 50.0729 91.1562 49.5312 91.1562C48.7448 91.1562 48.0781 91.0156 47.5312 90.7344C46.9896 90.4531 46.5781 90.0964 46.2969 89.6641C46.0208 89.2266 45.8828 88.7786 45.8828 88.3203H48.0156C48.026 88.6276 48.1042 88.875 48.25 89.0625C48.401 89.25 48.5911 89.3854 48.8203 89.4688C49.0547 89.5521 49.3073 89.5938 49.5781 89.5938C49.8698 89.5938 50.112 89.5547 50.3047 89.4766C50.4974 89.3932 50.6432 89.2839 50.7422 89.1484C50.8464 89.0078 50.8984 88.8464 50.8984 88.6641ZM60.9062 82.5469V91H58.6484V82.5469H60.9062ZM58.5078 80.3438C58.5078 80.0156 58.6224 79.7448 58.8516 79.5312C59.0807 79.3177 59.388 79.2109 59.7734 79.2109C60.1536 79.2109 60.4583 79.3177 60.6875 79.5312C60.9219 79.7448 61.0391 80.0156 61.0391 80.3438C61.0391 80.6719 60.9219 80.9427 60.6875 81.1562C60.4583 81.3698 60.1536 81.4766 59.7734 81.4766C59.388 81.4766 59.0807 81.3698 58.8516 81.1562C58.6224 80.9427 58.5078 80.6719 58.5078 80.3438ZM64.9688 84.3516V91H62.7188V82.5469H64.8281L64.9688 84.3516ZM64.6406 86.4766H64.0312C64.0312 85.8516 64.112 85.2891 64.2734 84.7891C64.4349 84.2839 64.6615 83.8542 64.9531 83.5C65.2448 83.1406 65.5911 82.8672 65.9922 82.6797C66.3984 82.487 66.8516 82.3906 67.3516 82.3906C67.7474 82.3906 68.1094 82.4479 68.4375 82.5625C68.7656 82.6771 69.0469 82.8594 69.2812 83.1094C69.5208 83.3594 69.7031 83.6901 69.8281 84.1016C69.9583 84.513 70.0234 85.0156 70.0234 85.6094V91H67.7578V85.6016C67.7578 85.2266 67.7057 84.9349 67.6016 84.7266C67.4974 84.5182 67.3438 84.3724 67.1406 84.2891C66.9427 84.2005 66.6979 84.1562 66.4062 84.1562C66.1042 84.1562 65.8411 84.2161 65.6172 84.3359C65.3984 84.4557 65.2161 84.6224 65.0703 84.8359C64.9297 85.0443 64.8229 85.2891 64.75 85.5703C64.6771 85.8516 64.6406 86.1536 64.6406 86.4766ZM77.9688 84.3906V91H75.7188V82.5469H77.8359L77.9688 84.3906ZM80.5156 82.4922L80.4766 84.5781C80.3672 84.5625 80.2344 84.5495 80.0781 84.5391C79.9271 84.5234 79.7891 84.5156 79.6641 84.5156C79.3464 84.5156 79.0703 84.5573 78.8359 84.6406C78.6068 84.7188 78.4141 84.8359 78.2578 84.9922C78.1068 85.1484 77.9922 85.3385 77.9141 85.5625C77.8411 85.7865 77.7995 86.0417 77.7891 86.3281L77.3359 86.1875C77.3359 85.6406 77.3906 85.138 77.5 84.6797C77.6094 84.2161 77.7682 83.8125 77.9766 83.4688C78.1901 83.125 78.4505 82.8594 78.7578 82.6719C79.0651 82.4844 79.4167 82.3906 79.8125 82.3906C79.9375 82.3906 80.0651 82.401 80.1953 82.4219C80.3255 82.4375 80.4323 82.4609 80.5156 82.4922ZM85.3125 91.1562C84.6562 91.1562 84.0677 91.0521 83.5469 90.8438C83.026 90.6302 82.5833 90.3359 82.2188 89.9609C81.8594 89.5859 81.5833 89.151 81.3906 88.6562C81.1979 88.1562 81.1016 87.625 81.1016 87.0625V86.75C81.1016 86.1094 81.1927 85.5234 81.375 84.9922C81.5573 84.4609 81.8177 84 82.1562 83.6094C82.5 83.2188 82.9167 82.9193 83.4062 82.7109C83.8958 82.4974 84.4479 82.3906 85.0625 82.3906C85.6615 82.3906 86.1927 82.4896 86.6562 82.6875C87.1198 82.8854 87.5078 83.1667 87.8203 83.5312C88.138 83.8958 88.3776 84.3333 88.5391 84.8438C88.7005 85.349 88.7812 85.9115 88.7812 86.5312V87.4688H82.0625V85.9688H86.5703V85.7969C86.5703 85.4844 86.513 85.2057 86.3984 84.9609C86.2891 84.7109 86.1224 84.513 85.8984 84.3672C85.6745 84.2214 85.388 84.1484 85.0391 84.1484C84.7422 84.1484 84.487 84.2135 84.2734 84.3438C84.0599 84.474 83.8854 84.6562 83.75 84.8906C83.6198 85.125 83.5208 85.401 83.4531 85.7188C83.3906 86.0312 83.3594 86.375 83.3594 86.75V87.0625C83.3594 87.401 83.4062 87.7135 83.5 88C83.599 88.2865 83.737 88.5339 83.9141 88.7422C84.0964 88.9505 84.3151 89.112 84.5703 89.2266C84.8307 89.3411 85.125 89.3984 85.4531 89.3984C85.8594 89.3984 86.237 89.3203 86.5859 89.1641C86.9401 89.0026 87.2448 88.7604 87.5 88.4375L88.5938 89.625C88.4167 89.8802 88.1745 90.125 87.8672 90.3594C87.5651 90.5938 87.2005 90.7865 86.7734 90.9375C86.3464 91.0833 85.8594 91.1562 85.3125 91.1562ZM90.0625 79H92.3125V89.0625L92.0859 91H90.0625V79ZM97.6641 86.6875V86.8516C97.6641 87.4818 97.5964 88.0599 97.4609 88.5859C97.3307 89.112 97.1276 89.5677 96.8516 89.9531C96.5755 90.3333 96.2318 90.6302 95.8203 90.8438C95.4141 91.0521 94.9349 91.1562 94.3828 91.1562C93.8672 91.1562 93.4193 91.0521 93.0391 90.8438C92.6641 90.6354 92.349 90.3411 92.0938 89.9609C91.8385 89.5807 91.6328 89.1354 91.4766 88.625C91.3203 88.1146 91.2031 87.5573 91.125 86.9531V86.5938C91.2031 85.9896 91.3203 85.4323 91.4766 84.9219C91.6328 84.4115 91.8385 83.9661 92.0938 83.5859C92.349 83.2057 92.6641 82.9115 93.0391 82.7031C93.4141 82.4948 93.8568 82.3906 94.3672 82.3906C94.9245 82.3906 95.4089 82.4974 95.8203 82.7109C96.237 82.9193 96.5807 83.2161 96.8516 83.6016C97.1276 83.9818 97.3307 84.4349 97.4609 84.9609C97.5964 85.4818 97.6641 86.0573 97.6641 86.6875ZM95.4141 86.8516V86.6875C95.4141 86.3438 95.388 86.0208 95.3359 85.7188C95.2891 85.4115 95.2057 85.1432 95.0859 84.9141C94.9661 84.6797 94.8021 84.4948 94.5938 84.3594C94.3906 84.224 94.1276 84.1562 93.8047 84.1562C93.4974 84.1562 93.237 84.2083 93.0234 84.3125C92.8099 84.4167 92.6328 84.5625 92.4922 84.75C92.3568 84.9375 92.2552 85.1615 92.1875 85.4219C92.1198 85.6771 92.0781 85.9583 92.0625 86.2656V87.2891C92.0781 87.7005 92.1458 88.0651 92.2656 88.3828C92.3906 88.6953 92.5781 88.9427 92.8281 89.125C93.0833 89.3021 93.4141 89.3906 93.8203 89.3906C94.138 89.3906 94.401 89.3281 94.6094 89.2031C94.8177 89.0781 94.9792 88.901 95.0938 88.6719C95.2135 88.4427 95.2969 88.1745 95.3438 87.8672C95.3906 87.5547 95.4141 87.2161 95.4141 86.8516ZM103.625 89.0938V85.3281C103.625 85.0573 103.581 84.8255 103.492 84.6328C103.404 84.4349 103.266 84.2812 103.078 84.1719C102.896 84.0625 102.659 84.0078 102.367 84.0078C102.117 84.0078 101.901 84.0521 101.719 84.1406C101.536 84.224 101.396 84.3464 101.297 84.5078C101.198 84.6641 101.148 84.849 101.148 85.0625H98.8984C98.8984 84.7031 98.9818 84.362 99.1484 84.0391C99.3151 83.7161 99.5573 83.4323 99.875 83.1875C100.193 82.9375 100.57 82.7422 101.008 82.6016C101.451 82.4609 101.945 82.3906 102.492 82.3906C103.148 82.3906 103.732 82.5 104.242 82.7188C104.753 82.9375 105.154 83.2656 105.445 83.7031C105.742 84.1406 105.891 84.6875 105.891 85.3438V88.9609C105.891 89.4245 105.919 89.8047 105.977 90.1016C106.034 90.3932 106.117 90.6484 106.227 90.8672V91H103.953C103.844 90.7708 103.76 90.4844 103.703 90.1406C103.651 89.7917 103.625 89.4427 103.625 89.0938ZM103.922 85.8516L103.938 87.125H102.68C102.383 87.125 102.125 87.1589 101.906 87.2266C101.688 87.2943 101.508 87.3906 101.367 87.5156C101.227 87.6354 101.122 87.776 101.055 87.9375C100.992 88.099 100.961 88.276 100.961 88.4688C100.961 88.6615 101.005 88.8359 101.094 88.9922C101.182 89.1432 101.31 89.263 101.477 89.3516C101.643 89.4349 101.839 89.4766 102.062 89.4766C102.401 89.4766 102.695 89.4089 102.945 89.2734C103.195 89.138 103.388 88.9714 103.523 88.7734C103.664 88.5755 103.737 88.388 103.742 88.2109L104.336 89.1641C104.253 89.3776 104.138 89.599 103.992 89.8281C103.852 90.0573 103.672 90.2734 103.453 90.4766C103.234 90.6745 102.971 90.8385 102.664 90.9688C102.357 91.0938 101.992 91.1562 101.57 91.1562C101.034 91.1562 100.547 91.0495 100.109 90.8359C99.6771 90.6172 99.3333 90.3177 99.0781 89.9375C98.8281 89.5521 98.7031 89.1146 98.7031 88.625C98.7031 88.1823 98.7865 87.7891 98.9531 87.4453C99.1198 87.1016 99.3646 86.8125 99.6875 86.5781C100.016 86.3385 100.424 86.1589 100.914 86.0391C101.404 85.9141 101.971 85.8516 102.617 85.8516H103.922ZM110 79V91H107.742V79H110ZM116.422 89.0938V85.3281C116.422 85.0573 116.378 84.8255 116.289 84.6328C116.201 84.4349 116.062 84.2812 115.875 84.1719C115.693 84.0625 115.456 84.0078 115.164 84.0078C114.914 84.0078 114.698 84.0521 114.516 84.1406C114.333 84.224 114.193 84.3464 114.094 84.5078C113.995 84.6641 113.945 84.849 113.945 85.0625H111.695C111.695 84.7031 111.779 84.362 111.945 84.0391C112.112 83.7161 112.354 83.4323 112.672 83.1875C112.99 82.9375 113.367 82.7422 113.805 82.6016C114.247 82.4609 114.742 82.3906 115.289 82.3906C115.945 82.3906 116.529 82.5 117.039 82.7188C117.549 82.9375 117.951 83.2656 118.242 83.7031C118.539 84.1406 118.688 84.6875 118.688 85.3438V88.9609C118.688 89.4245 118.716 89.8047 118.773 90.1016C118.831 90.3932 118.914 90.6484 119.023 90.8672V91H116.75C116.641 90.7708 116.557 90.4844 116.5 90.1406C116.448 89.7917 116.422 89.4427 116.422 89.0938ZM116.719 85.8516L116.734 87.125H115.477C115.18 87.125 114.922 87.1589 114.703 87.2266C114.484 87.2943 114.305 87.3906 114.164 87.5156C114.023 87.6354 113.919 87.776 113.852 87.9375C113.789 88.099 113.758 88.276 113.758 88.4688C113.758 88.6615 113.802 88.8359 113.891 88.9922C113.979 89.1432 114.107 89.263 114.273 89.3516C114.44 89.4349 114.635 89.4766 114.859 89.4766C115.198 89.4766 115.492 89.4089 115.742 89.2734C115.992 89.138 116.185 88.9714 116.32 88.7734C116.461 88.5755 116.534 88.388 116.539 88.2109L117.133 89.1641C117.049 89.3776 116.935 89.599 116.789 89.8281C116.648 90.0573 116.469 90.2734 116.25 90.4766C116.031 90.6745 115.768 90.8385 115.461 90.9688C115.154 91.0938 114.789 91.1562 114.367 91.1562C113.831 91.1562 113.344 91.0495 112.906 90.8359C112.474 90.6172 112.13 90.3177 111.875 89.9375C111.625 89.5521 111.5 89.1146 111.5 88.625C111.5 88.1823 111.583 87.7891 111.75 87.4453C111.917 87.1016 112.161 86.8125 112.484 86.5781C112.812 86.3385 113.221 86.1589 113.711 86.0391C114.201 85.9141 114.768 85.8516 115.414 85.8516H116.719ZM122.625 84.3516V91H120.375V82.5469H122.484L122.625 84.3516ZM122.297 86.4766H121.688C121.688 85.8516 121.768 85.2891 121.93 84.7891C122.091 84.2839 122.318 83.8542 122.609 83.5C122.901 83.1406 123.247 82.8672 123.648 82.6797C124.055 82.487 124.508 82.3906 125.008 82.3906C125.404 82.3906 125.766 82.4479 126.094 82.5625C126.422 82.6771 126.703 82.8594 126.938 83.1094C127.177 83.3594 127.359 83.6901 127.484 84.1016C127.615 84.513 127.68 85.0156 127.68 85.6094V91H125.414V85.6016C125.414 85.2266 125.362 84.9349 125.258 84.7266C125.154 84.5182 125 84.3724 124.797 84.2891C124.599 84.2005 124.354 84.1562 124.062 84.1562C123.76 84.1562 123.497 84.2161 123.273 84.3359C123.055 84.4557 122.872 84.6224 122.727 84.8359C122.586 85.0443 122.479 85.2891 122.406 85.5703C122.333 85.8516 122.297 86.1536 122.297 86.4766ZM132.883 89.3984C133.159 89.3984 133.404 89.3464 133.617 89.2422C133.831 89.1328 133.997 88.9818 134.117 88.7891C134.242 88.5911 134.307 88.3594 134.312 88.0938H136.43C136.424 88.6875 136.266 89.2161 135.953 89.6797C135.641 90.138 135.221 90.5 134.695 90.7656C134.169 91.026 133.581 91.1562 132.93 91.1562C132.273 91.1562 131.701 91.0469 131.211 90.8281C130.727 90.6094 130.323 90.3073 130 89.9219C129.677 89.5312 129.435 89.0781 129.273 88.5625C129.112 88.0417 129.031 87.4844 129.031 86.8906V86.6641C129.031 86.0651 129.112 85.5078 129.273 84.9922C129.435 84.4714 129.677 84.0182 130 83.6328C130.323 83.2422 130.727 82.9375 131.211 82.7188C131.695 82.5 132.263 82.3906 132.914 82.3906C133.607 82.3906 134.214 82.5234 134.734 82.7891C135.26 83.0547 135.672 83.4349 135.969 83.9297C136.271 84.4193 136.424 85 136.43 85.6719H134.312C134.307 85.3906 134.247 85.1354 134.133 84.9062C134.023 84.6771 133.862 84.4948 133.648 84.3594C133.44 84.2188 133.182 84.1484 132.875 84.1484C132.547 84.1484 132.279 84.2188 132.07 84.3594C131.862 84.4948 131.701 84.6823 131.586 84.9219C131.471 85.1562 131.391 85.4245 131.344 85.7266C131.302 86.0234 131.281 86.3359 131.281 86.6641V86.8906C131.281 87.2188 131.302 87.5339 131.344 87.8359C131.385 88.138 131.464 88.4062 131.578 88.6406C131.698 88.875 131.862 89.0599 132.07 89.1953C132.279 89.3307 132.549 89.3984 132.883 89.3984ZM140.109 82.5469V91H137.852V82.5469H140.109ZM137.711 80.3438C137.711 80.0156 137.826 79.7448 138.055 79.5312C138.284 79.3177 138.591 79.2109 138.977 79.2109C139.357 79.2109 139.661 79.3177 139.891 79.5312C140.125 79.7448 140.242 80.0156 140.242 80.3438C140.242 80.6719 140.125 80.9427 139.891 81.1562C139.661 81.3698 139.357 81.4766 138.977 81.4766C138.591 81.4766 138.284 81.3698 138.055 81.1562C137.826 80.9427 137.711 80.6719 137.711 80.3438ZM144.172 84.3516V91H141.922V82.5469H144.031L144.172 84.3516ZM143.844 86.4766H143.234C143.234 85.8516 143.315 85.2891 143.477 84.7891C143.638 84.2839 143.865 83.8542 144.156 83.5C144.448 83.1406 144.794 82.8672 145.195 82.6797C145.602 82.487 146.055 82.3906 146.555 82.3906C146.951 82.3906 147.312 82.4479 147.641 82.5625C147.969 82.6771 148.25 82.8594 148.484 83.1094C148.724 83.3594 148.906 83.6901 149.031 84.1016C149.161 84.513 149.227 85.0156 149.227 85.6094V91H146.961V85.6016C146.961 85.2266 146.909 84.9349 146.805 84.7266C146.701 84.5182 146.547 84.3724 146.344 84.2891C146.146 84.2005 145.901 84.1562 145.609 84.1562C145.307 84.1562 145.044 84.2161 144.82 84.3359C144.602 84.4557 144.419 84.6224 144.273 84.8359C144.133 85.0443 144.026 85.2891 143.953 85.5703C143.88 85.8516 143.844 86.1536 143.844 86.4766ZM156.289 82.5469H158.328V90.7188C158.328 91.4896 158.156 92.1432 157.812 92.6797C157.474 93.2214 157 93.6302 156.391 93.9062C155.781 94.1875 155.073 94.3281 154.266 94.3281C153.911 94.3281 153.536 94.2812 153.141 94.1875C152.75 94.0938 152.375 93.9479 152.016 93.75C151.661 93.5521 151.365 93.3021 151.125 93L152.117 91.6719C152.378 91.974 152.68 92.2083 153.023 92.375C153.367 92.5469 153.747 92.6328 154.164 92.6328C154.57 92.6328 154.914 92.5573 155.195 92.4062C155.477 92.2604 155.693 92.0443 155.844 91.7578C155.995 91.4766 156.07 91.1354 156.07 90.7344V84.5L156.289 82.5469ZM150.602 86.875V86.7109C150.602 86.0651 150.68 85.4792 150.836 84.9531C150.997 84.4219 151.224 83.9661 151.516 83.5859C151.812 83.2057 152.172 82.9115 152.594 82.7031C153.016 82.4948 153.492 82.3906 154.023 82.3906C154.586 82.3906 155.057 82.4948 155.438 82.7031C155.818 82.9115 156.13 83.2083 156.375 83.5938C156.62 83.974 156.81 84.4245 156.945 84.9453C157.086 85.4609 157.195 86.026 157.273 86.6406V87C157.195 87.5885 157.078 88.1354 156.922 88.6406C156.766 89.1458 156.56 89.5885 156.305 89.9688C156.049 90.3438 155.732 90.6354 155.352 90.8438C154.977 91.0521 154.529 91.1562 154.008 91.1562C153.487 91.1562 153.016 91.0495 152.594 90.8359C152.177 90.6224 151.82 90.3229 151.523 89.9375C151.227 89.5521 150.997 89.099 150.836 88.5781C150.68 88.0573 150.602 87.4896 150.602 86.875ZM152.852 86.7109V86.875C152.852 87.224 152.885 87.5495 152.953 87.8516C153.021 88.1536 153.125 88.4219 153.266 88.6562C153.411 88.8854 153.591 89.0651 153.805 89.1953C154.023 89.3203 154.281 89.3828 154.578 89.3828C154.99 89.3828 155.326 89.2969 155.586 89.125C155.846 88.9479 156.042 88.7057 156.172 88.3984C156.302 88.0911 156.378 87.737 156.398 87.3359V86.3125C156.388 85.9844 156.344 85.6901 156.266 85.4297C156.188 85.1641 156.078 84.9375 155.938 84.75C155.797 84.5625 155.615 84.4167 155.391 84.3125C155.167 84.2083 154.901 84.1562 154.594 84.1562C154.297 84.1562 154.039 84.224 153.82 84.3594C153.607 84.4896 153.427 84.6693 153.281 84.8984C153.141 85.1276 153.034 85.3984 152.961 85.7109C152.888 86.0182 152.852 86.3516 152.852 86.7109ZM167.555 89.3984C167.831 89.3984 168.076 89.3464 168.289 89.2422C168.503 89.1328 168.669 88.9818 168.789 88.7891C168.914 88.5911 168.979 88.3594 168.984 88.0938H171.102C171.096 88.6875 170.938 89.2161 170.625 89.6797C170.312 90.138 169.893 90.5 169.367 90.7656C168.841 91.026 168.253 91.1562 167.602 91.1562C166.945 91.1562 166.372 91.0469 165.883 90.8281C165.398 90.6094 164.995 90.3073 164.672 89.9219C164.349 89.5312 164.107 89.0781 163.945 88.5625C163.784 88.0417 163.703 87.4844 163.703 86.8906V86.6641C163.703 86.0651 163.784 85.5078 163.945 84.9922C164.107 84.4714 164.349 84.0182 164.672 83.6328C164.995 83.2422 165.398 82.9375 165.883 82.7188C166.367 82.5 166.935 82.3906 167.586 82.3906C168.279 82.3906 168.885 82.5234 169.406 82.7891C169.932 83.0547 170.344 83.4349 170.641 83.9297C170.943 84.4193 171.096 85 171.102 85.6719H168.984C168.979 85.3906 168.919 85.1354 168.805 84.9062C168.695 84.6771 168.534 84.4948 168.32 84.3594C168.112 84.2188 167.854 84.1484 167.547 84.1484C167.219 84.1484 166.951 84.2188 166.742 84.3594C166.534 84.4948 166.372 84.6823 166.258 84.9219C166.143 85.1562 166.062 85.4245 166.016 85.7266C165.974 86.0234 165.953 86.3359 165.953 86.6641V86.8906C165.953 87.2188 165.974 87.5339 166.016 87.8359C166.057 88.138 166.135 88.4062 166.25 88.6406C166.37 88.875 166.534 89.0599 166.742 89.1953C166.951 89.3307 167.221 89.3984 167.555 89.3984ZM176.969 89.0938V85.3281C176.969 85.0573 176.924 84.8255 176.836 84.6328C176.747 84.4349 176.609 84.2812 176.422 84.1719C176.24 84.0625 176.003 84.0078 175.711 84.0078C175.461 84.0078 175.245 84.0521 175.062 84.1406C174.88 84.224 174.74 84.3464 174.641 84.5078C174.542 84.6641 174.492 84.849 174.492 85.0625H172.242C172.242 84.7031 172.326 84.362 172.492 84.0391C172.659 83.7161 172.901 83.4323 173.219 83.1875C173.536 82.9375 173.914 82.7422 174.352 82.6016C174.794 82.4609 175.289 82.3906 175.836 82.3906C176.492 82.3906 177.076 82.5 177.586 82.7188C178.096 82.9375 178.497 83.2656 178.789 83.7031C179.086 84.1406 179.234 84.6875 179.234 85.3438V88.9609C179.234 89.4245 179.263 89.8047 179.32 90.1016C179.378 90.3932 179.461 90.6484 179.57 90.8672V91H177.297C177.188 90.7708 177.104 90.4844 177.047 90.1406C176.995 89.7917 176.969 89.4427 176.969 89.0938ZM177.266 85.8516L177.281 87.125H176.023C175.727 87.125 175.469 87.1589 175.25 87.2266C175.031 87.2943 174.852 87.3906 174.711 87.5156C174.57 87.6354 174.466 87.776 174.398 87.9375C174.336 88.099 174.305 88.276 174.305 88.4688C174.305 88.6615 174.349 88.8359 174.438 88.9922C174.526 89.1432 174.654 89.263 174.82 89.3516C174.987 89.4349 175.182 89.4766 175.406 89.4766C175.745 89.4766 176.039 89.4089 176.289 89.2734C176.539 89.138 176.732 88.9714 176.867 88.7734C177.008 88.5755 177.081 88.388 177.086 88.2109L177.68 89.1641C177.596 89.3776 177.482 89.599 177.336 89.8281C177.195 90.0573 177.016 90.2734 176.797 90.4766C176.578 90.6745 176.315 90.8385 176.008 90.9688C175.701 91.0938 175.336 91.1562 174.914 91.1562C174.378 91.1562 173.891 91.0495 173.453 90.8359C173.021 90.6172 172.677 90.3177 172.422 89.9375C172.172 89.5521 172.047 89.1146 172.047 88.625C172.047 88.1823 172.13 87.7891 172.297 87.4453C172.464 87.1016 172.708 86.8125 173.031 86.5781C173.359 86.3385 173.768 86.1589 174.258 86.0391C174.747 85.9141 175.315 85.8516 175.961 85.8516H177.266ZM183.219 84.1719V94.25H180.969V82.5469H183.055L183.219 84.1719ZM188.57 86.6797V86.8438C188.57 87.4583 188.497 88.0286 188.352 88.5547C188.211 89.0807 188.003 89.5391 187.727 89.9297C187.451 90.3151 187.107 90.6172 186.695 90.8359C186.289 91.0495 185.82 91.1562 185.289 91.1562C184.773 91.1562 184.326 91.0521 183.945 90.8438C183.565 90.6354 183.245 90.3438 182.984 89.9688C182.729 89.5885 182.523 89.1484 182.367 88.6484C182.211 88.1484 182.091 87.612 182.008 87.0391V86.6094C182.091 85.9948 182.211 85.4323 182.367 84.9219C182.523 84.4062 182.729 83.9609 182.984 83.5859C183.245 83.2057 183.562 82.9115 183.938 82.7031C184.318 82.4948 184.763 82.3906 185.273 82.3906C185.81 82.3906 186.281 82.4922 186.688 82.6953C187.099 82.8984 187.443 83.1901 187.719 83.5703C188 83.9505 188.211 84.4036 188.352 84.9297C188.497 85.4557 188.57 86.0391 188.57 86.6797ZM186.312 86.8438V86.6797C186.312 86.3203 186.281 85.9896 186.219 85.6875C186.161 85.3802 186.068 85.112 185.938 84.8828C185.812 84.6536 185.646 84.4766 185.438 84.3516C185.234 84.2214 184.987 84.1562 184.695 84.1562C184.388 84.1562 184.125 84.2057 183.906 84.3047C183.693 84.4036 183.518 84.5469 183.383 84.7344C183.247 84.9219 183.146 85.1458 183.078 85.4062C183.01 85.6667 182.969 85.9609 182.953 86.2891V87.375C182.979 87.7604 183.052 88.1068 183.172 88.4141C183.292 88.7161 183.477 88.9557 183.727 89.1328C183.977 89.3099 184.305 89.3984 184.711 89.3984C185.008 89.3984 185.258 89.3333 185.461 89.2031C185.664 89.0677 185.828 88.8828 185.953 88.6484C186.083 88.4141 186.174 88.1432 186.227 87.8359C186.284 87.5286 186.312 87.1979 186.312 86.8438ZM192.344 82.5469V91H190.086V82.5469H192.344ZM189.945 80.3438C189.945 80.0156 190.06 79.7448 190.289 79.5312C190.518 79.3177 190.826 79.2109 191.211 79.2109C191.591 79.2109 191.896 79.3177 192.125 79.5312C192.359 79.7448 192.477 80.0156 192.477 80.3438C192.477 80.6719 192.359 80.9427 192.125 81.1562C191.896 81.3698 191.591 81.4766 191.211 81.4766C190.826 81.4766 190.518 81.3698 190.289 81.1562C190.06 80.9427 189.945 80.6719 189.945 80.3438ZM198.344 82.5469V84.1406H193.422V82.5469H198.344ZM194.641 80.4609H196.891V88.4531C196.891 88.6979 196.922 88.8854 196.984 89.0156C197.052 89.1458 197.151 89.237 197.281 89.2891C197.411 89.3359 197.576 89.3594 197.773 89.3594C197.914 89.3594 198.039 89.3542 198.148 89.3438C198.263 89.3281 198.359 89.3125 198.438 89.2969L198.445 90.9531C198.253 91.0156 198.044 91.0651 197.82 91.1016C197.596 91.138 197.349 91.1562 197.078 91.1562C196.583 91.1562 196.151 91.0755 195.781 90.9141C195.417 90.7474 195.135 90.4818 194.938 90.1172C194.74 89.7526 194.641 89.2734 194.641 88.6797V80.4609ZM204.188 89.0938V85.3281C204.188 85.0573 204.143 84.8255 204.055 84.6328C203.966 84.4349 203.828 84.2812 203.641 84.1719C203.458 84.0625 203.221 84.0078 202.93 84.0078C202.68 84.0078 202.464 84.0521 202.281 84.1406C202.099 84.224 201.958 84.3464 201.859 84.5078C201.76 84.6641 201.711 84.849 201.711 85.0625H199.461C199.461 84.7031 199.544 84.362 199.711 84.0391C199.878 83.7161 200.12 83.4323 200.438 83.1875C200.755 82.9375 201.133 82.7422 201.57 82.6016C202.013 82.4609 202.508 82.3906 203.055 82.3906C203.711 82.3906 204.294 82.5 204.805 82.7188C205.315 82.9375 205.716 83.2656 206.008 83.7031C206.305 84.1406 206.453 84.6875 206.453 85.3438V88.9609C206.453 89.4245 206.482 89.8047 206.539 90.1016C206.596 90.3932 206.68 90.6484 206.789 90.8672V91H204.516C204.406 90.7708 204.323 90.4844 204.266 90.1406C204.214 89.7917 204.188 89.4427 204.188 89.0938ZM204.484 85.8516L204.5 87.125H203.242C202.945 87.125 202.688 87.1589 202.469 87.2266C202.25 87.2943 202.07 87.3906 201.93 87.5156C201.789 87.6354 201.685 87.776 201.617 87.9375C201.555 88.099 201.523 88.276 201.523 88.4688C201.523 88.6615 201.568 88.8359 201.656 88.9922C201.745 89.1432 201.872 89.263 202.039 89.3516C202.206 89.4349 202.401 89.4766 202.625 89.4766C202.964 89.4766 203.258 89.4089 203.508 89.2734C203.758 89.138 203.951 88.9714 204.086 88.7734C204.227 88.5755 204.299 88.388 204.305 88.2109L204.898 89.1641C204.815 89.3776 204.701 89.599 204.555 89.8281C204.414 90.0573 204.234 90.2734 204.016 90.4766C203.797 90.6745 203.534 90.8385 203.227 90.9688C202.919 91.0938 202.555 91.1562 202.133 91.1562C201.596 91.1562 201.109 91.0495 200.672 90.8359C200.24 90.6172 199.896 90.3177 199.641 89.9375C199.391 89.5521 199.266 89.1146 199.266 88.625C199.266 88.1823 199.349 87.7891 199.516 87.4453C199.682 87.1016 199.927 86.8125 200.25 86.5781C200.578 86.3385 200.987 86.1589 201.477 86.0391C201.966 85.9141 202.534 85.8516 203.18 85.8516H204.484ZM210.562 79V91H208.305V79H210.562ZM214.797 82.5469V91H212.539V82.5469H214.797ZM212.398 80.3438C212.398 80.0156 212.513 79.7448 212.742 79.5312C212.971 79.3177 213.279 79.2109 213.664 79.2109C214.044 79.2109 214.349 79.3177 214.578 79.5312C214.812 79.7448 214.93 80.0156 214.93 80.3438C214.93 80.6719 214.812 80.9427 214.578 81.1562C214.349 81.3698 214.044 81.4766 213.664 81.4766C213.279 81.4766 212.971 81.3698 212.742 81.1562C212.513 80.9427 212.398 80.6719 212.398 80.3438ZM221.227 88.6641C221.227 88.5026 221.18 88.3568 221.086 88.2266C220.992 88.0964 220.818 87.9766 220.562 87.8672C220.312 87.7526 219.951 87.6484 219.477 87.5547C219.049 87.4609 218.651 87.3438 218.281 87.2031C217.917 87.0573 217.599 86.8828 217.328 86.6797C217.062 86.4766 216.854 86.237 216.703 85.9609C216.552 85.6797 216.477 85.3594 216.477 85C216.477 84.6458 216.552 84.3125 216.703 84C216.859 83.6875 217.081 83.4115 217.367 83.1719C217.659 82.9271 218.013 82.737 218.43 82.6016C218.852 82.4609 219.326 82.3906 219.852 82.3906C220.586 82.3906 221.216 82.5078 221.742 82.7422C222.273 82.9766 222.68 83.2995 222.961 83.7109C223.247 84.1172 223.391 84.5807 223.391 85.1016H221.141C221.141 84.8828 221.094 84.6875 221 84.5156C220.911 84.3385 220.771 84.2005 220.578 84.1016C220.391 83.9974 220.146 83.9453 219.844 83.9453C219.594 83.9453 219.378 83.9896 219.195 84.0781C219.013 84.1615 218.872 84.276 218.773 84.4219C218.68 84.5625 218.633 84.7188 218.633 84.8906C218.633 85.0208 218.659 85.138 218.711 85.2422C218.768 85.3411 218.859 85.4323 218.984 85.5156C219.109 85.599 219.271 85.6771 219.469 85.75C219.672 85.8177 219.922 85.8802 220.219 85.9375C220.828 86.0625 221.372 86.2266 221.852 86.4297C222.331 86.6276 222.711 86.8984 222.992 87.2422C223.273 87.5807 223.414 88.026 223.414 88.5781C223.414 88.9531 223.331 89.2969 223.164 89.6094C222.997 89.9219 222.758 90.1953 222.445 90.4297C222.133 90.6589 221.758 90.8385 221.32 90.9688C220.888 91.0938 220.401 91.1562 219.859 91.1562C219.073 91.1562 218.406 91.0156 217.859 90.7344C217.318 90.4531 216.906 90.0964 216.625 89.6641C216.349 89.2266 216.211 88.7786 216.211 88.3203H218.344C218.354 88.6276 218.432 88.875 218.578 89.0625C218.729 89.25 218.919 89.3854 219.148 89.4688C219.383 89.5521 219.635 89.5938 219.906 89.5938C220.198 89.5938 220.44 89.5547 220.633 89.4766C220.826 89.3932 220.971 89.2839 221.07 89.1484C221.174 89.0078 221.227 88.8464 221.227 88.6641ZM227.125 84.2969V91H224.867V82.5469H226.984L227.125 84.2969ZM226.812 86.4766H226.188C226.188 85.888 226.258 85.3464 226.398 84.8516C226.544 84.3516 226.755 83.9193 227.031 83.5547C227.312 83.1849 227.659 82.8984 228.07 82.6953C228.482 82.4922 228.958 82.3906 229.5 82.3906C229.875 82.3906 230.219 82.4479 230.531 82.5625C230.844 82.6719 231.112 82.8464 231.336 83.0859C231.565 83.3203 231.742 83.6276 231.867 84.0078C231.992 84.3828 232.055 84.8333 232.055 85.3594V91H229.805V85.6094C229.805 85.224 229.753 84.9271 229.648 84.7188C229.544 84.5104 229.396 84.3646 229.203 84.2812C229.016 84.1979 228.789 84.1562 228.523 84.1562C228.232 84.1562 227.977 84.2161 227.758 84.3359C227.544 84.4557 227.367 84.6224 227.227 84.8359C227.086 85.0443 226.982 85.2891 226.914 85.5703C226.846 85.8516 226.812 86.1536 226.812 86.4766ZM231.844 86.2188L231.039 86.3203C231.039 85.7682 231.107 85.2552 231.242 84.7812C231.383 84.3073 231.589 83.8906 231.859 83.5312C232.135 83.1719 232.477 82.8932 232.883 82.6953C233.289 82.4922 233.758 82.3906 234.289 82.3906C234.695 82.3906 235.065 82.4505 235.398 82.5703C235.732 82.6849 236.016 82.8698 236.25 83.125C236.49 83.375 236.672 83.7031 236.797 84.1094C236.927 84.5156 236.992 85.013 236.992 85.6016V91H234.734V85.6016C234.734 85.2109 234.682 84.9141 234.578 84.7109C234.479 84.5026 234.333 84.3594 234.141 84.2812C233.953 84.1979 233.729 84.1562 233.469 84.1562C233.198 84.1562 232.961 84.2109 232.758 84.3203C232.555 84.4245 232.385 84.5703 232.25 84.7578C232.115 84.9453 232.013 85.1641 231.945 85.4141C231.878 85.6589 231.844 85.9271 231.844 86.2188ZM238.844 89.9141C238.844 89.5807 238.958 89.3021 239.188 89.0781C239.422 88.8542 239.732 88.7422 240.117 88.7422C240.503 88.7422 240.81 88.8542 241.039 89.0781C241.273 89.3021 241.391 89.5807 241.391 89.9141C241.391 90.2474 241.273 90.526 241.039 90.75C240.81 90.974 240.503 91.0859 240.117 91.0859C239.732 91.0859 239.422 90.974 239.188 90.75C238.958 90.526 238.844 90.2474 238.844 89.9141ZM252.125 81.5703L249.031 91H246.539L250.766 79.625H252.352L252.125 81.5703ZM254.695 91L251.594 81.5703L251.344 79.625H252.945L257.195 91H254.695ZM254.555 86.7656V88.6016H248.547V86.7656H254.555ZM262.68 88.6641C262.68 88.5026 262.633 88.3568 262.539 88.2266C262.445 88.0964 262.271 87.9766 262.016 87.8672C261.766 87.7526 261.404 87.6484 260.93 87.5547C260.503 87.4609 260.104 87.3438 259.734 87.2031C259.37 87.0573 259.052 86.8828 258.781 86.6797C258.516 86.4766 258.307 86.237 258.156 85.9609C258.005 85.6797 257.93 85.3594 257.93 85C257.93 84.6458 258.005 84.3125 258.156 84C258.312 83.6875 258.534 83.4115 258.82 83.1719C259.112 82.9271 259.466 82.737 259.883 82.6016C260.305 82.4609 260.779 82.3906 261.305 82.3906C262.039 82.3906 262.669 82.5078 263.195 82.7422C263.727 82.9766 264.133 83.2995 264.414 83.7109C264.701 84.1172 264.844 84.5807 264.844 85.1016H262.594C262.594 84.8828 262.547 84.6875 262.453 84.5156C262.365 84.3385 262.224 84.2005 262.031 84.1016C261.844 83.9974 261.599 83.9453 261.297 83.9453C261.047 83.9453 260.831 83.9896 260.648 84.0781C260.466 84.1615 260.326 84.276 260.227 84.4219C260.133 84.5625 260.086 84.7188 260.086 84.8906C260.086 85.0208 260.112 85.138 260.164 85.2422C260.221 85.3411 260.312 85.4323 260.438 85.5156C260.562 85.599 260.724 85.6771 260.922 85.75C261.125 85.8177 261.375 85.8802 261.672 85.9375C262.281 86.0625 262.826 86.2266 263.305 86.4297C263.784 86.6276 264.164 86.8984 264.445 87.2422C264.727 87.5807 264.867 88.026 264.867 88.5781C264.867 88.9531 264.784 89.2969 264.617 89.6094C264.451 89.9219 264.211 90.1953 263.898 90.4297C263.586 90.6589 263.211 90.8385 262.773 90.9688C262.341 91.0938 261.854 91.1562 261.312 91.1562C260.526 91.1562 259.859 91.0156 259.312 90.7344C258.771 90.4531 258.359 90.0964 258.078 89.6641C257.802 89.2266 257.664 88.7786 257.664 88.3203H259.797C259.807 88.6276 259.885 88.875 260.031 89.0625C260.182 89.25 260.372 89.3854 260.602 89.4688C260.836 89.5521 261.089 89.5938 261.359 89.5938C261.651 89.5938 261.893 89.5547 262.086 89.4766C262.279 89.3932 262.424 89.2839 262.523 89.1484C262.628 89.0078 262.68 88.8464 262.68 88.6641ZM270.469 82.5469V84.1406H265.547V82.5469H270.469ZM266.766 80.4609H269.016V88.4531C269.016 88.6979 269.047 88.8854 269.109 89.0156C269.177 89.1458 269.276 89.237 269.406 89.2891C269.536 89.3359 269.701 89.3594 269.898 89.3594C270.039 89.3594 270.164 89.3542 270.273 89.3438C270.388 89.3281 270.484 89.3125 270.562 89.2969L270.57 90.9531C270.378 91.0156 270.169 91.0651 269.945 91.1016C269.721 91.138 269.474 91.1562 269.203 91.1562C268.708 91.1562 268.276 91.0755 267.906 90.9141C267.542 90.7474 267.26 90.4818 267.062 90.1172C266.865 89.7526 266.766 89.2734 266.766 88.6797V80.4609ZM276.75 88.9766V82.5469H279V91H276.883L276.75 88.9766ZM277 87.2422L277.664 87.2266C277.664 87.7891 277.599 88.3125 277.469 88.7969C277.339 89.276 277.143 89.6927 276.883 90.0469C276.622 90.3958 276.294 90.6693 275.898 90.8672C275.503 91.0599 275.036 91.1562 274.5 91.1562C274.089 91.1562 273.708 91.099 273.359 90.9844C273.016 90.8646 272.719 90.6797 272.469 90.4297C272.224 90.1745 272.031 89.849 271.891 89.4531C271.755 89.0521 271.688 88.5703 271.688 88.0078V82.5469H273.938V88.0234C273.938 88.2734 273.966 88.4844 274.023 88.6562C274.086 88.8281 274.172 88.9688 274.281 89.0781C274.391 89.1875 274.518 89.2656 274.664 89.3125C274.815 89.3594 274.982 89.3828 275.164 89.3828C275.628 89.3828 275.992 89.2891 276.258 89.1016C276.529 88.9141 276.719 88.6589 276.828 88.3359C276.943 88.0078 277 87.6432 277 87.2422ZM284.859 82.5469V84.1406H279.938V82.5469H284.859ZM281.156 80.4609H283.406V88.4531C283.406 88.6979 283.438 88.8854 283.5 89.0156C283.568 89.1458 283.667 89.237 283.797 89.2891C283.927 89.3359 284.091 89.3594 284.289 89.3594C284.43 89.3594 284.555 89.3542 284.664 89.3438C284.779 89.3281 284.875 89.3125 284.953 89.2969L284.961 90.9531C284.768 91.0156 284.56 91.0651 284.336 91.1016C284.112 91.138 283.865 91.1562 283.594 91.1562C283.099 91.1562 282.667 91.0755 282.297 90.9141C281.932 90.7474 281.651 90.4818 281.453 90.1172C281.255 89.7526 281.156 89.2734 281.156 88.6797V80.4609ZM290.031 91.1562C289.375 91.1562 288.786 91.0521 288.266 90.8438C287.745 90.6302 287.302 90.3359 286.938 89.9609C286.578 89.5859 286.302 89.151 286.109 88.6562C285.917 88.1562 285.82 87.625 285.82 87.0625V86.75C285.82 86.1094 285.911 85.5234 286.094 84.9922C286.276 84.4609 286.536 84 286.875 83.6094C287.219 83.2188 287.635 82.9193 288.125 82.7109C288.615 82.4974 289.167 82.3906 289.781 82.3906C290.38 82.3906 290.911 82.4896 291.375 82.6875C291.839 82.8854 292.227 83.1667 292.539 83.5312C292.857 83.8958 293.096 84.3333 293.258 84.8438C293.419 85.349 293.5 85.9115 293.5 86.5312V87.4688H286.781V85.9688H291.289V85.7969C291.289 85.4844 291.232 85.2057 291.117 84.9609C291.008 84.7109 290.841 84.513 290.617 84.3672C290.393 84.2214 290.107 84.1484 289.758 84.1484C289.461 84.1484 289.206 84.2135 288.992 84.3438C288.779 84.474 288.604 84.6562 288.469 84.8906C288.339 85.125 288.24 85.401 288.172 85.7188C288.109 86.0312 288.078 86.375 288.078 86.75V87.0625C288.078 87.401 288.125 87.7135 288.219 88C288.318 88.2865 288.456 88.5339 288.633 88.7422C288.815 88.9505 289.034 89.112 289.289 89.2266C289.549 89.3411 289.844 89.3984 290.172 89.3984C290.578 89.3984 290.956 89.3203 291.305 89.1641C291.659 89.0026 291.964 88.7604 292.219 88.4375L293.312 89.625C293.135 89.8802 292.893 90.125 292.586 90.3594C292.284 90.5938 291.919 90.7865 291.492 90.9375C291.065 91.0833 290.578 91.1562 290.031 91.1562ZM304.117 82.5469H306.156V90.7188C306.156 91.4896 305.984 92.1432 305.641 92.6797C305.302 93.2214 304.828 93.6302 304.219 93.9062C303.609 94.1875 302.901 94.3281 302.094 94.3281C301.74 94.3281 301.365 94.2812 300.969 94.1875C300.578 94.0938 300.203 93.9479 299.844 93.75C299.49 93.5521 299.193 93.3021 298.953 93L299.945 91.6719C300.206 91.974 300.508 92.2083 300.852 92.375C301.195 92.5469 301.576 92.6328 301.992 92.6328C302.398 92.6328 302.742 92.5573 303.023 92.4062C303.305 92.2604 303.521 92.0443 303.672 91.7578C303.823 91.4766 303.898 91.1354 303.898 90.7344V84.5L304.117 82.5469ZM298.43 86.875V86.7109C298.43 86.0651 298.508 85.4792 298.664 84.9531C298.826 84.4219 299.052 83.9661 299.344 83.5859C299.641 83.2057 300 82.9115 300.422 82.7031C300.844 82.4948 301.32 82.3906 301.852 82.3906C302.414 82.3906 302.885 82.4948 303.266 82.7031C303.646 82.9115 303.958 83.2083 304.203 83.5938C304.448 83.974 304.638 84.4245 304.773 84.9453C304.914 85.4609 305.023 86.026 305.102 86.6406V87C305.023 87.5885 304.906 88.1354 304.75 88.6406C304.594 89.1458 304.388 89.5885 304.133 89.9688C303.878 90.3438 303.56 90.6354 303.18 90.8438C302.805 91.0521 302.357 91.1562 301.836 91.1562C301.315 91.1562 300.844 91.0495 300.422 90.8359C300.005 90.6224 299.648 90.3229 299.352 89.9375C299.055 89.5521 298.826 89.099 298.664 88.5781C298.508 88.0573 298.43 87.4896 298.43 86.875ZM300.68 86.7109V86.875C300.68 87.224 300.714 87.5495 300.781 87.8516C300.849 88.1536 300.953 88.4219 301.094 88.6562C301.24 88.8854 301.419 89.0651 301.633 89.1953C301.852 89.3203 302.109 89.3828 302.406 89.3828C302.818 89.3828 303.154 89.2969 303.414 89.125C303.674 88.9479 303.87 88.7057 304 88.3984C304.13 88.0911 304.206 87.737 304.227 87.3359V86.3125C304.216 85.9844 304.172 85.6901 304.094 85.4297C304.016 85.1641 303.906 84.9375 303.766 84.75C303.625 84.5625 303.443 84.4167 303.219 84.3125C302.995 84.2083 302.729 84.1562 302.422 84.1562C302.125 84.1562 301.867 84.224 301.648 84.3594C301.435 84.4896 301.255 84.6693 301.109 84.8984C300.969 85.1276 300.862 85.3984 300.789 85.7109C300.716 86.0182 300.68 86.3516 300.68 86.7109ZM310.156 84.3906V91H307.906V82.5469H310.023L310.156 84.3906ZM312.703 82.4922L312.664 84.5781C312.555 84.5625 312.422 84.5495 312.266 84.5391C312.115 84.5234 311.977 84.5156 311.852 84.5156C311.534 84.5156 311.258 84.5573 311.023 84.6406C310.794 84.7188 310.602 84.8359 310.445 84.9922C310.294 85.1484 310.18 85.3385 310.102 85.5625C310.029 85.7865 309.987 86.0417 309.977 86.3281L309.523 86.1875C309.523 85.6406 309.578 85.138 309.688 84.6797C309.797 84.2161 309.956 83.8125 310.164 83.4688C310.378 83.125 310.638 82.8594 310.945 82.6719C311.253 82.4844 311.604 82.3906 312 82.3906C312.125 82.3906 312.253 82.401 312.383 82.4219C312.513 82.4375 312.62 82.4609 312.703 82.4922ZM313.172 86.8594V86.6953C313.172 86.0755 313.26 85.5052 313.438 84.9844C313.615 84.4583 313.872 84.0026 314.211 83.6172C314.549 83.2318 314.966 82.9323 315.461 82.7188C315.956 82.5 316.523 82.3906 317.164 82.3906C317.805 82.3906 318.375 82.5 318.875 82.7188C319.375 82.9323 319.794 83.2318 320.133 83.6172C320.477 84.0026 320.737 84.4583 320.914 84.9844C321.091 85.5052 321.18 86.0755 321.18 86.6953V86.8594C321.18 87.474 321.091 88.0443 320.914 88.5703C320.737 89.0911 320.477 89.5469 320.133 89.9375C319.794 90.3229 319.378 90.6224 318.883 90.8359C318.388 91.0495 317.82 91.1562 317.18 91.1562C316.539 91.1562 315.969 91.0495 315.469 90.8359C314.974 90.6224 314.555 90.3229 314.211 89.9375C313.872 89.5469 313.615 89.0911 313.438 88.5703C313.26 88.0443 313.172 87.474 313.172 86.8594ZM315.422 86.6953V86.8594C315.422 87.2135 315.453 87.5443 315.516 87.8516C315.578 88.1589 315.677 88.4297 315.812 88.6641C315.953 88.8932 316.135 89.0729 316.359 89.2031C316.583 89.3333 316.857 89.3984 317.18 89.3984C317.492 89.3984 317.76 89.3333 317.984 89.2031C318.208 89.0729 318.388 88.8932 318.523 88.6641C318.659 88.4297 318.758 88.1589 318.82 87.8516C318.888 87.5443 318.922 87.2135 318.922 86.8594V86.6953C318.922 86.3516 318.888 86.0286 318.82 85.7266C318.758 85.4193 318.656 85.1484 318.516 84.9141C318.38 84.6745 318.201 84.487 317.977 84.3516C317.753 84.2161 317.482 84.1484 317.164 84.1484C316.846 84.1484 316.576 84.2161 316.352 84.3516C316.133 84.487 315.953 84.6745 315.812 84.9141C315.677 85.1484 315.578 85.4193 315.516 85.7266C315.453 86.0286 315.422 86.3516 315.422 86.6953ZM324.977 88.8125L326.734 82.5469H328.164L327.703 85.0078L325.945 91H324.75L324.977 88.8125ZM324.086 82.5469L325.344 88.8047L325.461 91H324.055L321.914 82.5469H324.086ZM329.773 88.7031L331 82.5469H333.18L331.039 91H329.641L329.773 88.7031ZM328.359 82.5469L330.109 88.7656L330.352 91H329.148L327.391 85.0156L326.945 82.5469H328.359ZM338.883 88.6641C338.883 88.5026 338.836 88.3568 338.742 88.2266C338.648 88.0964 338.474 87.9766 338.219 87.8672C337.969 87.7526 337.607 87.6484 337.133 87.5547C336.706 87.4609 336.307 87.3438 335.938 87.2031C335.573 87.0573 335.255 86.8828 334.984 86.6797C334.719 86.4766 334.51 86.237 334.359 85.9609C334.208 85.6797 334.133 85.3594 334.133 85C334.133 84.6458 334.208 84.3125 334.359 84C334.516 83.6875 334.737 83.4115 335.023 83.1719C335.315 82.9271 335.669 82.737 336.086 82.6016C336.508 82.4609 336.982 82.3906 337.508 82.3906C338.242 82.3906 338.872 82.5078 339.398 82.7422C339.93 82.9766 340.336 83.2995 340.617 83.7109C340.904 84.1172 341.047 84.5807 341.047 85.1016H338.797C338.797 84.8828 338.75 84.6875 338.656 84.5156C338.568 84.3385 338.427 84.2005 338.234 84.1016C338.047 83.9974 337.802 83.9453 337.5 83.9453C337.25 83.9453 337.034 83.9896 336.852 84.0781C336.669 84.1615 336.529 84.276 336.43 84.4219C336.336 84.5625 336.289 84.7188 336.289 84.8906C336.289 85.0208 336.315 85.138 336.367 85.2422C336.424 85.3411 336.516 85.4323 336.641 85.5156C336.766 85.599 336.927 85.6771 337.125 85.75C337.328 85.8177 337.578 85.8802 337.875 85.9375C338.484 86.0625 339.029 86.2266 339.508 86.4297C339.987 86.6276 340.367 86.8984 340.648 87.2422C340.93 87.5807 341.07 88.026 341.07 88.5781C341.07 88.9531 340.987 89.2969 340.82 89.6094C340.654 89.9219 340.414 90.1953 340.102 90.4297C339.789 90.6589 339.414 90.8385 338.977 90.9688C338.544 91.0938 338.057 91.1562 337.516 91.1562C336.729 91.1562 336.062 91.0156 335.516 90.7344C334.974 90.4531 334.562 90.0964 334.281 89.6641C334.005 89.2266 333.867 88.7786 333.867 88.3203H336C336.01 88.6276 336.089 88.875 336.234 89.0625C336.385 89.25 336.576 89.3854 336.805 89.4688C337.039 89.5521 337.292 89.5938 337.562 89.5938C337.854 89.5938 338.096 89.5547 338.289 89.4766C338.482 89.3932 338.628 89.2839 338.727 89.1484C338.831 89.0078 338.883 88.8464 338.883 88.6641ZM349.383 91H347.117V81.7969C347.117 81.1562 347.242 80.6172 347.492 80.1797C347.747 79.737 348.104 79.4036 348.562 79.1797C349.026 78.9505 349.576 78.8359 350.211 78.8359C350.419 78.8359 350.62 78.8516 350.812 78.8828C351.005 78.9089 351.193 78.9427 351.375 78.9844L351.352 80.6797C351.253 80.6536 351.148 80.6354 351.039 80.625C350.93 80.6146 350.802 80.6094 350.656 80.6094C350.385 80.6094 350.154 80.6562 349.961 80.75C349.773 80.8385 349.63 80.9714 349.531 81.1484C349.432 81.3255 349.383 81.5417 349.383 81.7969V91ZM351.07 82.5469V84.1406H345.859V82.5469H351.07ZM354.5 84.3906V91H352.25V82.5469H354.367L354.5 84.3906ZM357.047 82.4922L357.008 84.5781C356.898 84.5625 356.766 84.5495 356.609 84.5391C356.458 84.5234 356.32 84.5156 356.195 84.5156C355.878 84.5156 355.602 84.5573 355.367 84.6406C355.138 84.7188 354.945 84.8359 354.789 84.9922C354.638 85.1484 354.523 85.3385 354.445 85.5625C354.372 85.7865 354.331 86.0417 354.32 86.3281L353.867 86.1875C353.867 85.6406 353.922 85.138 354.031 84.6797C354.141 84.2161 354.299 83.8125 354.508 83.4688C354.721 83.125 354.982 82.8594 355.289 82.6719C355.596 82.4844 355.948 82.3906 356.344 82.3906C356.469 82.3906 356.596 82.401 356.727 82.4219C356.857 82.4375 356.964 82.4609 357.047 82.4922ZM357.516 86.8594V86.6953C357.516 86.0755 357.604 85.5052 357.781 84.9844C357.958 84.4583 358.216 84.0026 358.555 83.6172C358.893 83.2318 359.31 82.9323 359.805 82.7188C360.299 82.5 360.867 82.3906 361.508 82.3906C362.148 82.3906 362.719 82.5 363.219 82.7188C363.719 82.9323 364.138 83.2318 364.477 83.6172C364.82 84.0026 365.081 84.4583 365.258 84.9844C365.435 85.5052 365.523 86.0755 365.523 86.6953V86.8594C365.523 87.474 365.435 88.0443 365.258 88.5703C365.081 89.0911 364.82 89.5469 364.477 89.9375C364.138 90.3229 363.721 90.6224 363.227 90.8359C362.732 91.0495 362.164 91.1562 361.523 91.1562C360.883 91.1562 360.312 91.0495 359.812 90.8359C359.318 90.6224 358.898 90.3229 358.555 89.9375C358.216 89.5469 357.958 89.0911 357.781 88.5703C357.604 88.0443 357.516 87.474 357.516 86.8594ZM359.766 86.6953V86.8594C359.766 87.2135 359.797 87.5443 359.859 87.8516C359.922 88.1589 360.021 88.4297 360.156 88.6641C360.297 88.8932 360.479 89.0729 360.703 89.2031C360.927 89.3333 361.201 89.3984 361.523 89.3984C361.836 89.3984 362.104 89.3333 362.328 89.2031C362.552 89.0729 362.732 88.8932 362.867 88.6641C363.003 88.4297 363.102 88.1589 363.164 87.8516C363.232 87.5443 363.266 87.2135 363.266 86.8594V86.6953C363.266 86.3516 363.232 86.0286 363.164 85.7266C363.102 85.4193 363 85.1484 362.859 84.9141C362.724 84.6745 362.544 84.487 362.32 84.3516C362.096 84.2161 361.826 84.1484 361.508 84.1484C361.19 84.1484 360.919 84.2161 360.695 84.3516C360.477 84.487 360.297 84.6745 360.156 84.9141C360.021 85.1484 359.922 85.4193 359.859 85.7266C359.797 86.0286 359.766 86.3516 359.766 86.6953ZM369.156 84.2969V91H366.898V82.5469H369.016L369.156 84.2969ZM368.844 86.4766H368.219C368.219 85.888 368.289 85.3464 368.43 84.8516C368.576 84.3516 368.786 83.9193 369.062 83.5547C369.344 83.1849 369.69 82.8984 370.102 82.6953C370.513 82.4922 370.99 82.3906 371.531 82.3906C371.906 82.3906 372.25 82.4479 372.562 82.5625C372.875 82.6719 373.143 82.8464 373.367 83.0859C373.596 83.3203 373.773 83.6276 373.898 84.0078C374.023 84.3828 374.086 84.8333 374.086 85.3594V91H371.836V85.6094C371.836 85.224 371.784 84.9271 371.68 84.7188C371.576 84.5104 371.427 84.3646 371.234 84.2812C371.047 84.1979 370.82 84.1562 370.555 84.1562C370.263 84.1562 370.008 84.2161 369.789 84.3359C369.576 84.4557 369.398 84.6224 369.258 84.8359C369.117 85.0443 369.013 85.2891 368.945 85.5703C368.878 85.8516 368.844 86.1536 368.844 86.4766ZM373.875 86.2188L373.07 86.3203C373.07 85.7682 373.138 85.2552 373.273 84.7812C373.414 84.3073 373.62 83.8906 373.891 83.5312C374.167 83.1719 374.508 82.8932 374.914 82.6953C375.32 82.4922 375.789 82.3906 376.32 82.3906C376.727 82.3906 377.096 82.4505 377.43 82.5703C377.763 82.6849 378.047 82.8698 378.281 83.125C378.521 83.375 378.703 83.7031 378.828 84.1094C378.958 84.5156 379.023 85.013 379.023 85.6016V91H376.766V85.6016C376.766 85.2109 376.714 84.9141 376.609 84.7109C376.51 84.5026 376.365 84.3594 376.172 84.2812C375.984 84.1979 375.76 84.1562 375.5 84.1562C375.229 84.1562 374.992 84.2109 374.789 84.3203C374.586 84.4245 374.417 84.5703 374.281 84.7578C374.146 84.9453 374.044 85.1641 373.977 85.4141C373.909 85.6589 373.875 85.9271 373.875 86.2188ZM387.258 90.0469L389.5 82.5469H391.914L388.516 92.2734C388.443 92.487 388.344 92.7161 388.219 92.9609C388.099 93.2057 387.935 93.4375 387.727 93.6562C387.523 93.8802 387.266 94.0625 386.953 94.2031C386.646 94.3438 386.268 94.4141 385.82 94.4141C385.607 94.4141 385.432 94.401 385.297 94.375C385.161 94.349 385 94.3125 384.812 94.2656V92.6172C384.87 92.6172 384.93 92.6172 384.992 92.6172C385.055 92.6224 385.115 92.625 385.172 92.625C385.469 92.625 385.711 92.5911 385.898 92.5234C386.086 92.4557 386.237 92.3516 386.352 92.2109C386.466 92.0755 386.557 91.8984 386.625 91.6797L387.258 90.0469ZM386.32 82.5469L388.156 88.6719L388.477 91.0547L386.945 91.2188L383.906 82.5469H386.32ZM392.328 86.8594V86.6953C392.328 86.0755 392.417 85.5052 392.594 84.9844C392.771 84.4583 393.029 84.0026 393.367 83.6172C393.706 83.2318 394.122 82.9323 394.617 82.7188C395.112 82.5 395.68 82.3906 396.32 82.3906C396.961 82.3906 397.531 82.5 398.031 82.7188C398.531 82.9323 398.951 83.2318 399.289 83.6172C399.633 84.0026 399.893 84.4583 400.07 84.9844C400.247 85.5052 400.336 86.0755 400.336 86.6953V86.8594C400.336 87.474 400.247 88.0443 400.07 88.5703C399.893 89.0911 399.633 89.5469 399.289 89.9375C398.951 90.3229 398.534 90.6224 398.039 90.8359C397.544 91.0495 396.977 91.1562 396.336 91.1562C395.695 91.1562 395.125 91.0495 394.625 90.8359C394.13 90.6224 393.711 90.3229 393.367 89.9375C393.029 89.5469 392.771 89.0911 392.594 88.5703C392.417 88.0443 392.328 87.474 392.328 86.8594ZM394.578 86.6953V86.8594C394.578 87.2135 394.609 87.5443 394.672 87.8516C394.734 88.1589 394.833 88.4297 394.969 88.6641C395.109 88.8932 395.292 89.0729 395.516 89.2031C395.74 89.3333 396.013 89.3984 396.336 89.3984C396.648 89.3984 396.917 89.3333 397.141 89.2031C397.365 89.0729 397.544 88.8932 397.68 88.6641C397.815 88.4297 397.914 88.1589 397.977 87.8516C398.044 87.5443 398.078 87.2135 398.078 86.8594V86.6953C398.078 86.3516 398.044 86.0286 397.977 85.7266C397.914 85.4193 397.812 85.1484 397.672 84.9141C397.536 84.6745 397.357 84.487 397.133 84.3516C396.909 84.2161 396.638 84.1484 396.32 84.1484C396.003 84.1484 395.732 84.2161 395.508 84.3516C395.289 84.487 395.109 84.6745 394.969 84.9141C394.833 85.1484 394.734 85.4193 394.672 85.7266C394.609 86.0286 394.578 86.3516 394.578 86.6953ZM406.719 88.9766V82.5469H408.969V91H406.852L406.719 88.9766ZM406.969 87.2422L407.633 87.2266C407.633 87.7891 407.568 88.3125 407.438 88.7969C407.307 89.276 407.112 89.6927 406.852 90.0469C406.591 90.3958 406.263 90.6693 405.867 90.8672C405.471 91.0599 405.005 91.1562 404.469 91.1562C404.057 91.1562 403.677 91.099 403.328 90.9844C402.984 90.8646 402.688 90.6797 402.438 90.4297C402.193 90.1745 402 89.849 401.859 89.4531C401.724 89.0521 401.656 88.5703 401.656 88.0078V82.5469H403.906V88.0234C403.906 88.2734 403.935 88.4844 403.992 88.6562C404.055 88.8281 404.141 88.9688 404.25 89.0781C404.359 89.1875 404.487 89.2656 404.633 89.3125C404.784 89.3594 404.951 89.3828 405.133 89.3828C405.596 89.3828 405.961 89.2891 406.227 89.1016C406.497 88.9141 406.688 88.6589 406.797 88.3359C406.911 88.0078 406.969 87.6432 406.969 87.2422ZM412.938 84.3906V91H410.688V82.5469H412.805L412.938 84.3906ZM415.484 82.4922L415.445 84.5781C415.336 84.5625 415.203 84.5495 415.047 84.5391C414.896 84.5234 414.758 84.5156 414.633 84.5156C414.315 84.5156 414.039 84.5573 413.805 84.6406C413.576 84.7188 413.383 84.8359 413.227 84.9922C413.076 85.1484 412.961 85.3385 412.883 85.5625C412.81 85.7865 412.768 86.0417 412.758 86.3281L412.305 86.1875C412.305 85.6406 412.359 85.138 412.469 84.6797C412.578 84.2161 412.737 83.8125 412.945 83.4688C413.159 83.125 413.419 82.8594 413.727 82.6719C414.034 82.4844 414.385 82.3906 414.781 82.3906C414.906 82.3906 415.034 82.401 415.164 82.4219C415.294 82.4375 415.401 82.4609 415.484 82.4922ZM31.3672 115H29.1016V105.797C29.1016 105.156 29.2266 104.617 29.4766 104.18C29.7318 103.737 30.0885 103.404 30.5469 103.18C31.0104 102.951 31.5599 102.836 32.1953 102.836C32.4036 102.836 32.6042 102.852 32.7969 102.883C32.9896 102.909 33.1771 102.943 33.3594 102.984L33.3359 104.68C33.237 104.654 33.1328 104.635 33.0234 104.625C32.9141 104.615 32.7865 104.609 32.6406 104.609C32.3698 104.609 32.138 104.656 31.9453 104.75C31.7578 104.839 31.6146 104.971 31.5156 105.148C31.4167 105.326 31.3672 105.542 31.3672 105.797V115ZM33.0547 106.547V108.141H27.8438V106.547H33.0547ZM37.9375 115.156C37.2812 115.156 36.6927 115.052 36.1719 114.844C35.651 114.63 35.2083 114.336 34.8438 113.961C34.4844 113.586 34.2083 113.151 34.0156 112.656C33.8229 112.156 33.7266 111.625 33.7266 111.062V110.75C33.7266 110.109 33.8177 109.523 34 108.992C34.1823 108.461 34.4427 108 34.7812 107.609C35.125 107.219 35.5417 106.919 36.0312 106.711C36.5208 106.497 37.0729 106.391 37.6875 106.391C38.2865 106.391 38.8177 106.49 39.2812 106.688C39.7448 106.885 40.1328 107.167 40.4453 107.531C40.763 107.896 41.0026 108.333 41.1641 108.844C41.3255 109.349 41.4062 109.911 41.4062 110.531V111.469H34.6875V109.969H39.1953V109.797C39.1953 109.484 39.138 109.206 39.0234 108.961C38.9141 108.711 38.7474 108.513 38.5234 108.367C38.2995 108.221 38.013 108.148 37.6641 108.148C37.3672 108.148 37.112 108.214 36.8984 108.344C36.6849 108.474 36.5104 108.656 36.375 108.891C36.2448 109.125 36.1458 109.401 36.0781 109.719C36.0156 110.031 35.9844 110.375 35.9844 110.75V111.062C35.9844 111.401 36.0312 111.714 36.125 112C36.224 112.286 36.362 112.534 36.5391 112.742C36.7214 112.951 36.9401 113.112 37.1953 113.227C37.4557 113.341 37.75 113.398 38.0781 113.398C38.4844 113.398 38.862 113.32 39.2109 113.164C39.5651 113.003 39.8698 112.76 40.125 112.438L41.2188 113.625C41.0417 113.88 40.7995 114.125 40.4922 114.359C40.1901 114.594 39.8255 114.786 39.3984 114.938C38.9714 115.083 38.4844 115.156 37.9375 115.156ZM46.5781 115.156C45.9219 115.156 45.3333 115.052 44.8125 114.844C44.2917 114.63 43.849 114.336 43.4844 113.961C43.125 113.586 42.849 113.151 42.6562 112.656C42.4635 112.156 42.3672 111.625 42.3672 111.062V110.75C42.3672 110.109 42.4583 109.523 42.6406 108.992C42.8229 108.461 43.0833 108 43.4219 107.609C43.7656 107.219 44.1823 106.919 44.6719 106.711C45.1615 106.497 45.7135 106.391 46.3281 106.391C46.9271 106.391 47.4583 106.49 47.9219 106.688C48.3854 106.885 48.7734 107.167 49.0859 107.531C49.4036 107.896 49.6432 108.333 49.8047 108.844C49.9661 109.349 50.0469 109.911 50.0469 110.531V111.469H43.3281V109.969H47.8359V109.797C47.8359 109.484 47.7786 109.206 47.6641 108.961C47.5547 108.711 47.388 108.513 47.1641 108.367C46.9401 108.221 46.6536 108.148 46.3047 108.148C46.0078 108.148 45.7526 108.214 45.5391 108.344C45.3255 108.474 45.151 108.656 45.0156 108.891C44.8854 109.125 44.7865 109.401 44.7188 109.719C44.6562 110.031 44.625 110.375 44.625 110.75V111.062C44.625 111.401 44.6719 111.714 44.7656 112C44.8646 112.286 45.0026 112.534 45.1797 112.742C45.362 112.951 45.5807 113.112 45.8359 113.227C46.0964 113.341 46.3906 113.398 46.7188 113.398C47.125 113.398 47.5026 113.32 47.8516 113.164C48.2057 113.003 48.5104 112.76 48.7656 112.438L49.8594 113.625C49.6823 113.88 49.4401 114.125 49.1328 114.359C48.8307 114.594 48.4661 114.786 48.0391 114.938C47.612 115.083 47.125 115.156 46.5781 115.156ZM56.3203 113.156V103H58.5859V115H56.5469L56.3203 113.156ZM50.9766 110.875V110.711C50.9766 110.065 51.0495 109.479 51.1953 108.953C51.3411 108.422 51.5547 107.966 51.8359 107.586C52.1172 107.206 52.4635 106.911 52.875 106.703C53.2865 106.495 53.7552 106.391 54.2812 106.391C54.776 106.391 55.2083 106.495 55.5781 106.703C55.9531 106.911 56.2708 107.208 56.5312 107.594C56.7969 107.974 57.0104 108.424 57.1719 108.945C57.3333 109.461 57.4505 110.026 57.5234 110.641V111C57.4505 111.589 57.3333 112.135 57.1719 112.641C57.0104 113.146 56.7969 113.589 56.5312 113.969C56.2708 114.344 55.9531 114.635 55.5781 114.844C55.2031 115.052 54.7656 115.156 54.2656 115.156C53.7396 115.156 53.2708 115.049 52.8594 114.836C52.4531 114.622 52.1094 114.323 51.8281 113.938C51.5521 113.552 51.3411 113.099 51.1953 112.578C51.0495 112.057 50.9766 111.49 50.9766 110.875ZM53.2266 110.711V110.875C53.2266 111.224 53.2526 111.549 53.3047 111.852C53.362 112.154 53.4531 112.422 53.5781 112.656C53.7083 112.885 53.875 113.065 54.0781 113.195C54.2865 113.32 54.5391 113.383 54.8359 113.383C55.2214 113.383 55.5391 113.297 55.7891 113.125C56.0391 112.948 56.2292 112.706 56.3594 112.398C56.4948 112.091 56.5729 111.737 56.5938 111.336V110.312C56.5781 109.984 56.5312 109.69 56.4531 109.43C56.3802 109.164 56.2708 108.938 56.125 108.75C55.9844 108.562 55.8073 108.417 55.5938 108.312C55.3854 108.208 55.138 108.156 54.8516 108.156C54.5599 108.156 54.3099 108.224 54.1016 108.359C53.8932 108.49 53.724 108.669 53.5938 108.898C53.4688 109.128 53.375 109.398 53.3125 109.711C53.2552 110.018 53.2266 110.352 53.2266 110.711ZM60.3438 103H62.5938V113.062L62.3672 115H60.3438V103ZM67.9453 110.688V110.852C67.9453 111.482 67.8776 112.06 67.7422 112.586C67.612 113.112 67.4089 113.568 67.1328 113.953C66.8568 114.333 66.513 114.63 66.1016 114.844C65.6953 115.052 65.2161 115.156 64.6641 115.156C64.1484 115.156 63.7005 115.052 63.3203 114.844C62.9453 114.635 62.6302 114.341 62.375 113.961C62.1198 113.581 61.9141 113.135 61.7578 112.625C61.6016 112.115 61.4844 111.557 61.4062 110.953V110.594C61.4844 109.99 61.6016 109.432 61.7578 108.922C61.9141 108.411 62.1198 107.966 62.375 107.586C62.6302 107.206 62.9453 106.911 63.3203 106.703C63.6953 106.495 64.138 106.391 64.6484 106.391C65.2057 106.391 65.6901 106.497 66.1016 106.711C66.5182 106.919 66.862 107.216 67.1328 107.602C67.4089 107.982 67.612 108.435 67.7422 108.961C67.8776 109.482 67.9453 110.057 67.9453 110.688ZM65.6953 110.852V110.688C65.6953 110.344 65.6693 110.021 65.6172 109.719C65.5703 109.411 65.487 109.143 65.3672 108.914C65.2474 108.68 65.0833 108.495 64.875 108.359C64.6719 108.224 64.4089 108.156 64.0859 108.156C63.7786 108.156 63.5182 108.208 63.3047 108.312C63.0911 108.417 62.9141 108.562 62.7734 108.75C62.638 108.938 62.5365 109.161 62.4688 109.422C62.401 109.677 62.3594 109.958 62.3438 110.266V111.289C62.3594 111.701 62.4271 112.065 62.5469 112.383C62.6719 112.695 62.8594 112.943 63.1094 113.125C63.3646 113.302 63.6953 113.391 64.1016 113.391C64.4193 113.391 64.6823 113.328 64.8906 113.203C65.099 113.078 65.2604 112.901 65.375 112.672C65.4948 112.443 65.5781 112.174 65.625 111.867C65.6719 111.555 65.6953 111.216 65.6953 110.852ZM73.9062 113.094V109.328C73.9062 109.057 73.862 108.826 73.7734 108.633C73.6849 108.435 73.5469 108.281 73.3594 108.172C73.1771 108.062 72.9401 108.008 72.6484 108.008C72.3984 108.008 72.1823 108.052 72 108.141C71.8177 108.224 71.6771 108.346 71.5781 108.508C71.4792 108.664 71.4297 108.849 71.4297 109.062H69.1797C69.1797 108.703 69.263 108.362 69.4297 108.039C69.5964 107.716 69.8385 107.432 70.1562 107.188C70.474 106.938 70.8516 106.742 71.2891 106.602C71.7318 106.461 72.2266 106.391 72.7734 106.391C73.4297 106.391 74.013 106.5 74.5234 106.719C75.0339 106.938 75.4349 107.266 75.7266 107.703C76.0234 108.141 76.1719 108.688 76.1719 109.344V112.961C76.1719 113.424 76.2005 113.805 76.2578 114.102C76.3151 114.393 76.3984 114.648 76.5078 114.867V115H74.2344C74.125 114.771 74.0417 114.484 73.9844 114.141C73.9323 113.792 73.9062 113.443 73.9062 113.094ZM74.2031 109.852L74.2188 111.125H72.9609C72.6641 111.125 72.4062 111.159 72.1875 111.227C71.9688 111.294 71.7891 111.391 71.6484 111.516C71.5078 111.635 71.4036 111.776 71.3359 111.938C71.2734 112.099 71.2422 112.276 71.2422 112.469C71.2422 112.661 71.2865 112.836 71.375 112.992C71.4635 113.143 71.5911 113.263 71.7578 113.352C71.9245 113.435 72.1198 113.477 72.3438 113.477C72.6823 113.477 72.9766 113.409 73.2266 113.273C73.4766 113.138 73.6693 112.971 73.8047 112.773C73.9453 112.576 74.0182 112.388 74.0234 112.211L74.6172 113.164C74.5339 113.378 74.4193 113.599 74.2734 113.828C74.1328 114.057 73.9531 114.273 73.7344 114.477C73.5156 114.674 73.2526 114.839 72.9453 114.969C72.638 115.094 72.2734 115.156 71.8516 115.156C71.3151 115.156 70.8281 115.049 70.3906 114.836C69.9583 114.617 69.6146 114.318 69.3594 113.938C69.1094 113.552 68.9844 113.115 68.9844 112.625C68.9844 112.182 69.0677 111.789 69.2344 111.445C69.401 111.102 69.6458 110.812 69.9688 110.578C70.2969 110.339 70.7057 110.159 71.1953 110.039C71.6849 109.914 72.2526 109.852 72.8984 109.852H74.2031ZM81.3984 113.398C81.6745 113.398 81.9193 113.346 82.1328 113.242C82.3464 113.133 82.513 112.982 82.6328 112.789C82.7578 112.591 82.8229 112.359 82.8281 112.094H84.9453C84.9401 112.688 84.7812 113.216 84.4688 113.68C84.1562 114.138 83.737 114.5 83.2109 114.766C82.6849 115.026 82.0964 115.156 81.4453 115.156C80.7891 115.156 80.2161 115.047 79.7266 114.828C79.2422 114.609 78.8385 114.307 78.5156 113.922C78.1927 113.531 77.9505 113.078 77.7891 112.562C77.6276 112.042 77.5469 111.484 77.5469 110.891V110.664C77.5469 110.065 77.6276 109.508 77.7891 108.992C77.9505 108.471 78.1927 108.018 78.5156 107.633C78.8385 107.242 79.2422 106.938 79.7266 106.719C80.2109 106.5 80.7786 106.391 81.4297 106.391C82.1224 106.391 82.7292 106.523 83.25 106.789C83.776 107.055 84.1875 107.435 84.4844 107.93C84.7865 108.419 84.9401 109 84.9453 109.672H82.8281C82.8229 109.391 82.763 109.135 82.6484 108.906C82.5391 108.677 82.3776 108.495 82.1641 108.359C81.9557 108.219 81.6979 108.148 81.3906 108.148C81.0625 108.148 80.7943 108.219 80.5859 108.359C80.3776 108.495 80.2161 108.682 80.1016 108.922C79.987 109.156 79.9062 109.424 79.8594 109.727C79.8177 110.023 79.7969 110.336 79.7969 110.664V110.891C79.7969 111.219 79.8177 111.534 79.8594 111.836C79.901 112.138 79.9792 112.406 80.0938 112.641C80.2135 112.875 80.3776 113.06 80.5859 113.195C80.7943 113.331 81.0651 113.398 81.3984 113.398ZM88.5 102.992V115H86.25V102.992H88.5ZM93.8281 106.547L90.1562 110.734L88.1875 112.727L87.3672 111.102L88.9297 109.117L91.125 106.547H93.8281ZM91.4922 115L88.9922 111.094L90.5469 109.734L94.0859 115H91.4922ZM94.9062 113.914C94.9062 113.581 95.0208 113.302 95.25 113.078C95.4844 112.854 95.7943 112.742 96.1797 112.742C96.5651 112.742 96.8724 112.854 97.1016 113.078C97.3359 113.302 97.4531 113.581 97.4531 113.914C97.4531 114.247 97.3359 114.526 97.1016 114.75C96.8724 114.974 96.5651 115.086 96.1797 115.086C95.7943 115.086 95.4844 114.974 95.25 114.75C95.0208 114.526 94.9062 114.247 94.9062 113.914ZM108.227 103.625V115H105.891V103.625H108.227ZM111.727 103.625V105.461H102.445V103.625H111.727ZM115.117 103V115H112.867V103H115.117ZM114.797 110.477H114.18C114.185 109.888 114.263 109.346 114.414 108.852C114.565 108.352 114.781 107.919 115.062 107.555C115.344 107.185 115.68 106.898 116.07 106.695C116.466 106.492 116.904 106.391 117.383 106.391C117.799 106.391 118.177 106.451 118.516 106.57C118.859 106.685 119.154 106.872 119.398 107.133C119.648 107.388 119.841 107.724 119.977 108.141C120.112 108.557 120.18 109.062 120.18 109.656V115H117.914V109.641C117.914 109.266 117.859 108.971 117.75 108.758C117.646 108.539 117.492 108.385 117.289 108.297C117.091 108.203 116.846 108.156 116.555 108.156C116.232 108.156 115.956 108.216 115.727 108.336C115.503 108.456 115.323 108.622 115.188 108.836C115.052 109.044 114.953 109.289 114.891 109.57C114.828 109.852 114.797 110.154 114.797 110.477ZM126.453 113.094V109.328C126.453 109.057 126.409 108.826 126.32 108.633C126.232 108.435 126.094 108.281 125.906 108.172C125.724 108.062 125.487 108.008 125.195 108.008C124.945 108.008 124.729 108.052 124.547 108.141C124.365 108.224 124.224 108.346 124.125 108.508C124.026 108.664 123.977 108.849 123.977 109.062H121.727C121.727 108.703 121.81 108.362 121.977 108.039C122.143 107.716 122.385 107.432 122.703 107.188C123.021 106.938 123.398 106.742 123.836 106.602C124.279 106.461 124.773 106.391 125.32 106.391C125.977 106.391 126.56 106.5 127.07 106.719C127.581 106.938 127.982 107.266 128.273 107.703C128.57 108.141 128.719 108.688 128.719 109.344V112.961C128.719 113.424 128.747 113.805 128.805 114.102C128.862 114.393 128.945 114.648 129.055 114.867V115H126.781C126.672 114.771 126.589 114.484 126.531 114.141C126.479 113.792 126.453 113.443 126.453 113.094ZM126.75 109.852L126.766 111.125H125.508C125.211 111.125 124.953 111.159 124.734 111.227C124.516 111.294 124.336 111.391 124.195 111.516C124.055 111.635 123.951 111.776 123.883 111.938C123.82 112.099 123.789 112.276 123.789 112.469C123.789 112.661 123.833 112.836 123.922 112.992C124.01 113.143 124.138 113.263 124.305 113.352C124.471 113.435 124.667 113.477 124.891 113.477C125.229 113.477 125.523 113.409 125.773 113.273C126.023 113.138 126.216 112.971 126.352 112.773C126.492 112.576 126.565 112.388 126.57 112.211L127.164 113.164C127.081 113.378 126.966 113.599 126.82 113.828C126.68 114.057 126.5 114.273 126.281 114.477C126.062 114.674 125.799 114.839 125.492 114.969C125.185 115.094 124.82 115.156 124.398 115.156C123.862 115.156 123.375 115.049 122.938 114.836C122.505 114.617 122.161 114.318 121.906 113.938C121.656 113.552 121.531 113.115 121.531 112.625C121.531 112.182 121.615 111.789 121.781 111.445C121.948 111.102 122.193 110.812 122.516 110.578C122.844 110.339 123.253 110.159 123.742 110.039C124.232 109.914 124.799 109.852 125.445 109.852H126.75ZM132.656 108.352V115H130.406V106.547H132.516L132.656 108.352ZM132.328 110.477H131.719C131.719 109.852 131.799 109.289 131.961 108.789C132.122 108.284 132.349 107.854 132.641 107.5C132.932 107.141 133.279 106.867 133.68 106.68C134.086 106.487 134.539 106.391 135.039 106.391C135.435 106.391 135.797 106.448 136.125 106.562C136.453 106.677 136.734 106.859 136.969 107.109C137.208 107.359 137.391 107.69 137.516 108.102C137.646 108.513 137.711 109.016 137.711 109.609V115H135.445V109.602C135.445 109.227 135.393 108.935 135.289 108.727C135.185 108.518 135.031 108.372 134.828 108.289C134.63 108.201 134.385 108.156 134.094 108.156C133.792 108.156 133.529 108.216 133.305 108.336C133.086 108.456 132.904 108.622 132.758 108.836C132.617 109.044 132.51 109.289 132.438 109.57C132.365 109.852 132.328 110.154 132.328 110.477ZM141.672 102.992V115H139.422V102.992H141.672ZM147 106.547L143.328 110.734L141.359 112.727L140.539 111.102L142.102 109.117L144.297 106.547H147ZM144.664 115L142.164 111.094L143.719 109.734L147.258 115H144.664ZM152.539 112.664C152.539 112.503 152.492 112.357 152.398 112.227C152.305 112.096 152.13 111.977 151.875 111.867C151.625 111.753 151.263 111.648 150.789 111.555C150.362 111.461 149.964 111.344 149.594 111.203C149.229 111.057 148.911 110.883 148.641 110.68C148.375 110.477 148.167 110.237 148.016 109.961C147.865 109.68 147.789 109.359 147.789 109C147.789 108.646 147.865 108.312 148.016 108C148.172 107.688 148.393 107.411 148.68 107.172C148.971 106.927 149.326 106.737 149.742 106.602C150.164 106.461 150.638 106.391 151.164 106.391C151.898 106.391 152.529 106.508 153.055 106.742C153.586 106.977 153.992 107.299 154.273 107.711C154.56 108.117 154.703 108.581 154.703 109.102H152.453C152.453 108.883 152.406 108.688 152.312 108.516C152.224 108.339 152.083 108.201 151.891 108.102C151.703 107.997 151.458 107.945 151.156 107.945C150.906 107.945 150.69 107.99 150.508 108.078C150.326 108.161 150.185 108.276 150.086 108.422C149.992 108.562 149.945 108.719 149.945 108.891C149.945 109.021 149.971 109.138 150.023 109.242C150.081 109.341 150.172 109.432 150.297 109.516C150.422 109.599 150.583 109.677 150.781 109.75C150.984 109.818 151.234 109.88 151.531 109.938C152.141 110.062 152.685 110.227 153.164 110.43C153.643 110.628 154.023 110.898 154.305 111.242C154.586 111.581 154.727 112.026 154.727 112.578C154.727 112.953 154.643 113.297 154.477 113.609C154.31 113.922 154.07 114.195 153.758 114.43C153.445 114.659 153.07 114.839 152.633 114.969C152.201 115.094 151.714 115.156 151.172 115.156C150.385 115.156 149.719 115.016 149.172 114.734C148.63 114.453 148.219 114.096 147.938 113.664C147.661 113.227 147.523 112.779 147.523 112.32H149.656C149.667 112.628 149.745 112.875 149.891 113.062C150.042 113.25 150.232 113.385 150.461 113.469C150.695 113.552 150.948 113.594 151.219 113.594C151.51 113.594 151.753 113.555 151.945 113.477C152.138 113.393 152.284 113.284 152.383 113.148C152.487 113.008 152.539 112.846 152.539 112.664ZM163.039 115H160.773V105.797C160.773 105.156 160.898 104.617 161.148 104.18C161.404 103.737 161.76 103.404 162.219 103.18C162.682 102.951 163.232 102.836 163.867 102.836C164.076 102.836 164.276 102.852 164.469 102.883C164.661 102.909 164.849 102.943 165.031 102.984L165.008 104.68C164.909 104.654 164.805 104.635 164.695 104.625C164.586 104.615 164.458 104.609 164.312 104.609C164.042 104.609 163.81 104.656 163.617 104.75C163.43 104.839 163.286 104.971 163.188 105.148C163.089 105.326 163.039 105.542 163.039 105.797V115ZM164.727 106.547V108.141H159.516V106.547H164.727ZM165.547 110.859V110.695C165.547 110.076 165.635 109.505 165.812 108.984C165.99 108.458 166.247 108.003 166.586 107.617C166.924 107.232 167.341 106.932 167.836 106.719C168.331 106.5 168.898 106.391 169.539 106.391C170.18 106.391 170.75 106.5 171.25 106.719C171.75 106.932 172.169 107.232 172.508 107.617C172.852 108.003 173.112 108.458 173.289 108.984C173.466 109.505 173.555 110.076 173.555 110.695V110.859C173.555 111.474 173.466 112.044 173.289 112.57C173.112 113.091 172.852 113.547 172.508 113.938C172.169 114.323 171.753 114.622 171.258 114.836C170.763 115.049 170.195 115.156 169.555 115.156C168.914 115.156 168.344 115.049 167.844 114.836C167.349 114.622 166.93 114.323 166.586 113.938C166.247 113.547 165.99 113.091 165.812 112.57C165.635 112.044 165.547 111.474 165.547 110.859ZM167.797 110.695V110.859C167.797 111.214 167.828 111.544 167.891 111.852C167.953 112.159 168.052 112.43 168.188 112.664C168.328 112.893 168.51 113.073 168.734 113.203C168.958 113.333 169.232 113.398 169.555 113.398C169.867 113.398 170.135 113.333 170.359 113.203C170.583 113.073 170.763 112.893 170.898 112.664C171.034 112.43 171.133 112.159 171.195 111.852C171.263 111.544 171.297 111.214 171.297 110.859V110.695C171.297 110.352 171.263 110.029 171.195 109.727C171.133 109.419 171.031 109.148 170.891 108.914C170.755 108.674 170.576 108.487 170.352 108.352C170.128 108.216 169.857 108.148 169.539 108.148C169.221 108.148 168.951 108.216 168.727 108.352C168.508 108.487 168.328 108.674 168.188 108.914C168.052 109.148 167.953 109.419 167.891 109.727C167.828 110.029 167.797 110.352 167.797 110.695ZM177.188 108.391V115H174.938V106.547H177.055L177.188 108.391ZM179.734 106.492L179.695 108.578C179.586 108.562 179.453 108.549 179.297 108.539C179.146 108.523 179.008 108.516 178.883 108.516C178.565 108.516 178.289 108.557 178.055 108.641C177.826 108.719 177.633 108.836 177.477 108.992C177.326 109.148 177.211 109.339 177.133 109.562C177.06 109.786 177.018 110.042 177.008 110.328L176.555 110.188C176.555 109.641 176.609 109.138 176.719 108.68C176.828 108.216 176.987 107.812 177.195 107.469C177.409 107.125 177.669 106.859 177.977 106.672C178.284 106.484 178.635 106.391 179.031 106.391C179.156 106.391 179.284 106.401 179.414 106.422C179.544 106.438 179.651 106.461 179.734 106.492ZM187.289 114.047L189.531 106.547H191.945L188.547 116.273C188.474 116.487 188.375 116.716 188.25 116.961C188.13 117.206 187.966 117.438 187.758 117.656C187.555 117.88 187.297 118.062 186.984 118.203C186.677 118.344 186.299 118.414 185.852 118.414C185.638 118.414 185.464 118.401 185.328 118.375C185.193 118.349 185.031 118.312 184.844 118.266V116.617C184.901 116.617 184.961 116.617 185.023 116.617C185.086 116.622 185.146 116.625 185.203 116.625C185.5 116.625 185.742 116.591 185.93 116.523C186.117 116.456 186.268 116.352 186.383 116.211C186.497 116.076 186.589 115.898 186.656 115.68L187.289 114.047ZM186.352 106.547L188.188 112.672L188.508 115.055L186.977 115.219L183.938 106.547H186.352ZM192.359 110.859V110.695C192.359 110.076 192.448 109.505 192.625 108.984C192.802 108.458 193.06 108.003 193.398 107.617C193.737 107.232 194.154 106.932 194.648 106.719C195.143 106.5 195.711 106.391 196.352 106.391C196.992 106.391 197.562 106.5 198.062 106.719C198.562 106.932 198.982 107.232 199.32 107.617C199.664 108.003 199.924 108.458 200.102 108.984C200.279 109.505 200.367 110.076 200.367 110.695V110.859C200.367 111.474 200.279 112.044 200.102 112.57C199.924 113.091 199.664 113.547 199.32 113.938C198.982 114.323 198.565 114.622 198.07 114.836C197.576 115.049 197.008 115.156 196.367 115.156C195.727 115.156 195.156 115.049 194.656 114.836C194.161 114.622 193.742 114.323 193.398 113.938C193.06 113.547 192.802 113.091 192.625 112.57C192.448 112.044 192.359 111.474 192.359 110.859ZM194.609 110.695V110.859C194.609 111.214 194.641 111.544 194.703 111.852C194.766 112.159 194.865 112.43 195 112.664C195.141 112.893 195.323 113.073 195.547 113.203C195.771 113.333 196.044 113.398 196.367 113.398C196.68 113.398 196.948 113.333 197.172 113.203C197.396 113.073 197.576 112.893 197.711 112.664C197.846 112.43 197.945 112.159 198.008 111.852C198.076 111.544 198.109 111.214 198.109 110.859V110.695C198.109 110.352 198.076 110.029 198.008 109.727C197.945 109.419 197.844 109.148 197.703 108.914C197.568 108.674 197.388 108.487 197.164 108.352C196.94 108.216 196.669 108.148 196.352 108.148C196.034 108.148 195.763 108.216 195.539 108.352C195.32 108.487 195.141 108.674 195 108.914C194.865 109.148 194.766 109.419 194.703 109.727C194.641 110.029 194.609 110.352 194.609 110.695ZM206.75 112.977V106.547H209V115H206.883L206.75 112.977ZM207 111.242L207.664 111.227C207.664 111.789 207.599 112.312 207.469 112.797C207.339 113.276 207.143 113.693 206.883 114.047C206.622 114.396 206.294 114.669 205.898 114.867C205.503 115.06 205.036 115.156 204.5 115.156C204.089 115.156 203.708 115.099 203.359 114.984C203.016 114.865 202.719 114.68 202.469 114.43C202.224 114.174 202.031 113.849 201.891 113.453C201.755 113.052 201.688 112.57 201.688 112.008V106.547H203.938V112.023C203.938 112.273 203.966 112.484 204.023 112.656C204.086 112.828 204.172 112.969 204.281 113.078C204.391 113.188 204.518 113.266 204.664 113.312C204.815 113.359 204.982 113.383 205.164 113.383C205.628 113.383 205.992 113.289 206.258 113.102C206.529 112.914 206.719 112.659 206.828 112.336C206.943 112.008 207 111.643 207 111.242ZM212.969 108.391V115H210.719V106.547H212.836L212.969 108.391ZM215.516 106.492L215.477 108.578C215.367 108.562 215.234 108.549 215.078 108.539C214.927 108.523 214.789 108.516 214.664 108.516C214.346 108.516 214.07 108.557 213.836 108.641C213.607 108.719 213.414 108.836 213.258 108.992C213.107 109.148 212.992 109.339 212.914 109.562C212.841 109.786 212.799 110.042 212.789 110.328L212.336 110.188C212.336 109.641 212.391 109.138 212.5 108.68C212.609 108.216 212.768 107.812 212.977 107.469C213.19 107.125 213.451 106.859 213.758 106.672C214.065 106.484 214.417 106.391 214.812 106.391C214.938 106.391 215.065 106.401 215.195 106.422C215.326 106.438 215.432 106.461 215.516 106.492ZM225.133 112.664C225.133 112.503 225.086 112.357 224.992 112.227C224.898 112.096 224.724 111.977 224.469 111.867C224.219 111.753 223.857 111.648 223.383 111.555C222.956 111.461 222.557 111.344 222.188 111.203C221.823 111.057 221.505 110.883 221.234 110.68C220.969 110.477 220.76 110.237 220.609 109.961C220.458 109.68 220.383 109.359 220.383 109C220.383 108.646 220.458 108.312 220.609 108C220.766 107.688 220.987 107.411 221.273 107.172C221.565 106.927 221.919 106.737 222.336 106.602C222.758 106.461 223.232 106.391 223.758 106.391C224.492 106.391 225.122 106.508 225.648 106.742C226.18 106.977 226.586 107.299 226.867 107.711C227.154 108.117 227.297 108.581 227.297 109.102H225.047C225.047 108.883 225 108.688 224.906 108.516C224.818 108.339 224.677 108.201 224.484 108.102C224.297 107.997 224.052 107.945 223.75 107.945C223.5 107.945 223.284 107.99 223.102 108.078C222.919 108.161 222.779 108.276 222.68 108.422C222.586 108.562 222.539 108.719 222.539 108.891C222.539 109.021 222.565 109.138 222.617 109.242C222.674 109.341 222.766 109.432 222.891 109.516C223.016 109.599 223.177 109.677 223.375 109.75C223.578 109.818 223.828 109.88 224.125 109.938C224.734 110.062 225.279 110.227 225.758 110.43C226.237 110.628 226.617 110.898 226.898 111.242C227.18 111.581 227.32 112.026 227.32 112.578C227.32 112.953 227.237 113.297 227.07 113.609C226.904 113.922 226.664 114.195 226.352 114.43C226.039 114.659 225.664 114.839 225.227 114.969C224.794 115.094 224.307 115.156 223.766 115.156C222.979 115.156 222.312 115.016 221.766 114.734C221.224 114.453 220.812 114.096 220.531 113.664C220.255 113.227 220.117 112.779 220.117 112.32H222.25C222.26 112.628 222.339 112.875 222.484 113.062C222.635 113.25 222.826 113.385 223.055 113.469C223.289 113.552 223.542 113.594 223.812 113.594C224.104 113.594 224.346 113.555 224.539 113.477C224.732 113.393 224.878 113.284 224.977 113.148C225.081 113.008 225.133 112.846 225.133 112.664ZM233.781 112.977V106.547H236.031V115H233.914L233.781 112.977ZM234.031 111.242L234.695 111.227C234.695 111.789 234.63 112.312 234.5 112.797C234.37 113.276 234.174 113.693 233.914 114.047C233.654 114.396 233.326 114.669 232.93 114.867C232.534 115.06 232.068 115.156 231.531 115.156C231.12 115.156 230.74 115.099 230.391 114.984C230.047 114.865 229.75 114.68 229.5 114.43C229.255 114.174 229.062 113.849 228.922 113.453C228.786 113.052 228.719 112.57 228.719 112.008V106.547H230.969V112.023C230.969 112.273 230.997 112.484 231.055 112.656C231.117 112.828 231.203 112.969 231.312 113.078C231.422 113.188 231.549 113.266 231.695 113.312C231.846 113.359 232.013 113.383 232.195 113.383C232.659 113.383 233.023 113.289 233.289 113.102C233.56 112.914 233.75 112.659 233.859 112.336C233.974 112.008 234.031 111.643 234.031 111.242ZM240 108.172V118.25H237.75V106.547H239.836L240 108.172ZM245.352 110.68V110.844C245.352 111.458 245.279 112.029 245.133 112.555C244.992 113.081 244.784 113.539 244.508 113.93C244.232 114.315 243.888 114.617 243.477 114.836C243.07 115.049 242.602 115.156 242.07 115.156C241.555 115.156 241.107 115.052 240.727 114.844C240.346 114.635 240.026 114.344 239.766 113.969C239.51 113.589 239.305 113.148 239.148 112.648C238.992 112.148 238.872 111.612 238.789 111.039V110.609C238.872 109.995 238.992 109.432 239.148 108.922C239.305 108.406 239.51 107.961 239.766 107.586C240.026 107.206 240.344 106.911 240.719 106.703C241.099 106.495 241.544 106.391 242.055 106.391C242.591 106.391 243.062 106.492 243.469 106.695C243.88 106.898 244.224 107.19 244.5 107.57C244.781 107.951 244.992 108.404 245.133 108.93C245.279 109.456 245.352 110.039 245.352 110.68ZM243.094 110.844V110.68C243.094 110.32 243.062 109.99 243 109.688C242.943 109.38 242.849 109.112 242.719 108.883C242.594 108.654 242.427 108.477 242.219 108.352C242.016 108.221 241.768 108.156 241.477 108.156C241.169 108.156 240.906 108.206 240.688 108.305C240.474 108.404 240.299 108.547 240.164 108.734C240.029 108.922 239.927 109.146 239.859 109.406C239.792 109.667 239.75 109.961 239.734 110.289V111.375C239.76 111.76 239.833 112.107 239.953 112.414C240.073 112.716 240.258 112.956 240.508 113.133C240.758 113.31 241.086 113.398 241.492 113.398C241.789 113.398 242.039 113.333 242.242 113.203C242.445 113.068 242.609 112.883 242.734 112.648C242.865 112.414 242.956 112.143 243.008 111.836C243.065 111.529 243.094 111.198 243.094 110.844ZM249 108.172V118.25H246.75V106.547H248.836L249 108.172ZM254.352 110.68V110.844C254.352 111.458 254.279 112.029 254.133 112.555C253.992 113.081 253.784 113.539 253.508 113.93C253.232 114.315 252.888 114.617 252.477 114.836C252.07 115.049 251.602 115.156 251.07 115.156C250.555 115.156 250.107 115.052 249.727 114.844C249.346 114.635 249.026 114.344 248.766 113.969C248.51 113.589 248.305 113.148 248.148 112.648C247.992 112.148 247.872 111.612 247.789 111.039V110.609C247.872 109.995 247.992 109.432 248.148 108.922C248.305 108.406 248.51 107.961 248.766 107.586C249.026 107.206 249.344 106.911 249.719 106.703C250.099 106.495 250.544 106.391 251.055 106.391C251.591 106.391 252.062 106.492 252.469 106.695C252.88 106.898 253.224 107.19 253.5 107.57C253.781 107.951 253.992 108.404 254.133 108.93C254.279 109.456 254.352 110.039 254.352 110.68ZM252.094 110.844V110.68C252.094 110.32 252.062 109.99 252 109.688C251.943 109.38 251.849 109.112 251.719 108.883C251.594 108.654 251.427 108.477 251.219 108.352C251.016 108.221 250.768 108.156 250.477 108.156C250.169 108.156 249.906 108.206 249.688 108.305C249.474 108.404 249.299 108.547 249.164 108.734C249.029 108.922 248.927 109.146 248.859 109.406C248.792 109.667 248.75 109.961 248.734 110.289V111.375C248.76 111.76 248.833 112.107 248.953 112.414C249.073 112.716 249.258 112.956 249.508 113.133C249.758 113.31 250.086 113.398 250.492 113.398C250.789 113.398 251.039 113.333 251.242 113.203C251.445 113.068 251.609 112.883 251.734 112.648C251.865 112.414 251.956 112.143 252.008 111.836C252.065 111.529 252.094 111.198 252.094 110.844ZM255.391 110.859V110.695C255.391 110.076 255.479 109.505 255.656 108.984C255.833 108.458 256.091 108.003 256.43 107.617C256.768 107.232 257.185 106.932 257.68 106.719C258.174 106.5 258.742 106.391 259.383 106.391C260.023 106.391 260.594 106.5 261.094 106.719C261.594 106.932 262.013 107.232 262.352 107.617C262.695 108.003 262.956 108.458 263.133 108.984C263.31 109.505 263.398 110.076 263.398 110.695V110.859C263.398 111.474 263.31 112.044 263.133 112.57C262.956 113.091 262.695 113.547 262.352 113.938C262.013 114.323 261.596 114.622 261.102 114.836C260.607 115.049 260.039 115.156 259.398 115.156C258.758 115.156 258.188 115.049 257.688 114.836C257.193 114.622 256.773 114.323 256.43 113.938C256.091 113.547 255.833 113.091 255.656 112.57C255.479 112.044 255.391 111.474 255.391 110.859ZM257.641 110.695V110.859C257.641 111.214 257.672 111.544 257.734 111.852C257.797 112.159 257.896 112.43 258.031 112.664C258.172 112.893 258.354 113.073 258.578 113.203C258.802 113.333 259.076 113.398 259.398 113.398C259.711 113.398 259.979 113.333 260.203 113.203C260.427 113.073 260.607 112.893 260.742 112.664C260.878 112.43 260.977 112.159 261.039 111.852C261.107 111.544 261.141 111.214 261.141 110.859V110.695C261.141 110.352 261.107 110.029 261.039 109.727C260.977 109.419 260.875 109.148 260.734 108.914C260.599 108.674 260.419 108.487 260.195 108.352C259.971 108.216 259.701 108.148 259.383 108.148C259.065 108.148 258.794 108.216 258.57 108.352C258.352 108.487 258.172 108.674 258.031 108.914C257.896 109.148 257.797 109.419 257.734 109.727C257.672 110.029 257.641 110.352 257.641 110.695ZM267.031 108.391V115H264.781V106.547H266.898L267.031 108.391ZM269.578 106.492L269.539 108.578C269.43 108.562 269.297 108.549 269.141 108.539C268.99 108.523 268.852 108.516 268.727 108.516C268.409 108.516 268.133 108.557 267.898 108.641C267.669 108.719 267.477 108.836 267.32 108.992C267.169 109.148 267.055 109.339 266.977 109.562C266.904 109.786 266.862 110.042 266.852 110.328L266.398 110.188C266.398 109.641 266.453 109.138 266.562 108.68C266.672 108.216 266.831 107.812 267.039 107.469C267.253 107.125 267.513 106.859 267.82 106.672C268.128 106.484 268.479 106.391 268.875 106.391C269 106.391 269.128 106.401 269.258 106.422C269.388 106.438 269.495 106.461 269.578 106.492ZM275.172 106.547V108.141H270.25V106.547H275.172ZM271.469 104.461H273.719V112.453C273.719 112.698 273.75 112.885 273.812 113.016C273.88 113.146 273.979 113.237 274.109 113.289C274.24 113.336 274.404 113.359 274.602 113.359C274.742 113.359 274.867 113.354 274.977 113.344C275.091 113.328 275.188 113.312 275.266 113.297L275.273 114.953C275.081 115.016 274.872 115.065 274.648 115.102C274.424 115.138 274.177 115.156 273.906 115.156C273.411 115.156 272.979 115.076 272.609 114.914C272.245 114.747 271.964 114.482 271.766 114.117C271.568 113.753 271.469 113.273 271.469 112.68V104.461ZM278.586 113.102L278.578 114.609C278.578 115.188 278.432 115.771 278.141 116.359C277.854 116.948 277.49 117.43 277.047 117.805L275.875 117.203C276.005 116.964 276.133 116.724 276.258 116.484C276.383 116.245 276.487 115.982 276.57 115.695C276.654 115.409 276.695 115.083 276.695 114.719V113.102H278.586ZM286.625 102.992V115H284.375V102.992H286.625ZM291.953 106.547L288.281 110.734L286.312 112.727L285.492 111.102L287.055 109.117L289.25 106.547H291.953ZM289.617 115L287.117 111.094L288.672 109.734L292.211 115H289.617ZM296.656 115.156C296 115.156 295.411 115.052 294.891 114.844C294.37 114.63 293.927 114.336 293.562 113.961C293.203 113.586 292.927 113.151 292.734 112.656C292.542 112.156 292.445 111.625 292.445 111.062V110.75C292.445 110.109 292.536 109.523 292.719 108.992C292.901 108.461 293.161 108 293.5 107.609C293.844 107.219 294.26 106.919 294.75 106.711C295.24 106.497 295.792 106.391 296.406 106.391C297.005 106.391 297.536 106.49 298 106.688C298.464 106.885 298.852 107.167 299.164 107.531C299.482 107.896 299.721 108.333 299.883 108.844C300.044 109.349 300.125 109.911 300.125 110.531V111.469H293.406V109.969H297.914V109.797C297.914 109.484 297.857 109.206 297.742 108.961C297.633 108.711 297.466 108.513 297.242 108.367C297.018 108.221 296.732 108.148 296.383 108.148C296.086 108.148 295.831 108.214 295.617 108.344C295.404 108.474 295.229 108.656 295.094 108.891C294.964 109.125 294.865 109.401 294.797 109.719C294.734 110.031 294.703 110.375 294.703 110.75V111.062C294.703 111.401 294.75 111.714 294.844 112C294.943 112.286 295.081 112.534 295.258 112.742C295.44 112.951 295.659 113.112 295.914 113.227C296.174 113.341 296.469 113.398 296.797 113.398C297.203 113.398 297.581 113.32 297.93 113.164C298.284 113.003 298.589 112.76 298.844 112.438L299.938 113.625C299.76 113.88 299.518 114.125 299.211 114.359C298.909 114.594 298.544 114.786 298.117 114.938C297.69 115.083 297.203 115.156 296.656 115.156ZM305.297 115.156C304.641 115.156 304.052 115.052 303.531 114.844C303.01 114.63 302.568 114.336 302.203 113.961C301.844 113.586 301.568 113.151 301.375 112.656C301.182 112.156 301.086 111.625 301.086 111.062V110.75C301.086 110.109 301.177 109.523 301.359 108.992C301.542 108.461 301.802 108 302.141 107.609C302.484 107.219 302.901 106.919 303.391 106.711C303.88 106.497 304.432 106.391 305.047 106.391C305.646 106.391 306.177 106.49 306.641 106.688C307.104 106.885 307.492 107.167 307.805 107.531C308.122 107.896 308.362 108.333 308.523 108.844C308.685 109.349 308.766 109.911 308.766 110.531V111.469H302.047V109.969H306.555V109.797C306.555 109.484 306.497 109.206 306.383 108.961C306.273 108.711 306.107 108.513 305.883 108.367C305.659 108.221 305.372 108.148 305.023 108.148C304.727 108.148 304.471 108.214 304.258 108.344C304.044 108.474 303.87 108.656 303.734 108.891C303.604 109.125 303.505 109.401 303.438 109.719C303.375 110.031 303.344 110.375 303.344 110.75V111.062C303.344 111.401 303.391 111.714 303.484 112C303.583 112.286 303.721 112.534 303.898 112.742C304.081 112.951 304.299 113.112 304.555 113.227C304.815 113.341 305.109 113.398 305.438 113.398C305.844 113.398 306.221 113.32 306.57 113.164C306.924 113.003 307.229 112.76 307.484 112.438L308.578 113.625C308.401 113.88 308.159 114.125 307.852 114.359C307.549 114.594 307.185 114.786 306.758 114.938C306.331 115.083 305.844 115.156 305.297 115.156ZM312.297 108.172V118.25H310.047V106.547H312.133L312.297 108.172ZM317.648 110.68V110.844C317.648 111.458 317.576 112.029 317.43 112.555C317.289 113.081 317.081 113.539 316.805 113.93C316.529 114.315 316.185 114.617 315.773 114.836C315.367 115.049 314.898 115.156 314.367 115.156C313.852 115.156 313.404 115.052 313.023 114.844C312.643 114.635 312.323 114.344 312.062 113.969C311.807 113.589 311.602 113.148 311.445 112.648C311.289 112.148 311.169 111.612 311.086 111.039V110.609C311.169 109.995 311.289 109.432 311.445 108.922C311.602 108.406 311.807 107.961 312.062 107.586C312.323 107.206 312.641 106.911 313.016 106.703C313.396 106.495 313.841 106.391 314.352 106.391C314.888 106.391 315.359 106.492 315.766 106.695C316.177 106.898 316.521 107.19 316.797 107.57C317.078 107.951 317.289 108.404 317.43 108.93C317.576 109.456 317.648 110.039 317.648 110.68ZM315.391 110.844V110.68C315.391 110.32 315.359 109.99 315.297 109.688C315.24 109.38 315.146 109.112 315.016 108.883C314.891 108.654 314.724 108.477 314.516 108.352C314.312 108.221 314.065 108.156 313.773 108.156C313.466 108.156 313.203 108.206 312.984 108.305C312.771 108.404 312.596 108.547 312.461 108.734C312.326 108.922 312.224 109.146 312.156 109.406C312.089 109.667 312.047 109.961 312.031 110.289V111.375C312.057 111.76 312.13 112.107 312.25 112.414C312.37 112.716 312.555 112.956 312.805 113.133C313.055 113.31 313.383 113.398 313.789 113.398C314.086 113.398 314.336 113.333 314.539 113.203C314.742 113.068 314.906 112.883 315.031 112.648C315.161 112.414 315.253 112.143 315.305 111.836C315.362 111.529 315.391 111.198 315.391 110.844ZM325.406 106.547V115H323.148V106.547H325.406ZM323.008 104.344C323.008 104.016 323.122 103.745 323.352 103.531C323.581 103.318 323.888 103.211 324.273 103.211C324.654 103.211 324.958 103.318 325.188 103.531C325.422 103.745 325.539 104.016 325.539 104.344C325.539 104.672 325.422 104.943 325.188 105.156C324.958 105.37 324.654 105.477 324.273 105.477C323.888 105.477 323.581 105.37 323.352 105.156C323.122 104.943 323.008 104.672 323.008 104.344ZM331.406 106.547V108.141H326.484V106.547H331.406ZM327.703 104.461H329.953V112.453C329.953 112.698 329.984 112.885 330.047 113.016C330.115 113.146 330.214 113.237 330.344 113.289C330.474 113.336 330.638 113.359 330.836 113.359C330.977 113.359 331.102 113.354 331.211 113.344C331.326 113.328 331.422 113.312 331.5 113.297L331.508 114.953C331.315 115.016 331.107 115.065 330.883 115.102C330.659 115.138 330.411 115.156 330.141 115.156C329.646 115.156 329.214 115.076 328.844 114.914C328.479 114.747 328.198 114.482 328 114.117C327.802 113.753 327.703 113.273 327.703 112.68V104.461ZM340.164 113.398C340.44 113.398 340.685 113.346 340.898 113.242C341.112 113.133 341.279 112.982 341.398 112.789C341.523 112.591 341.589 112.359 341.594 112.094H343.711C343.706 112.688 343.547 113.216 343.234 113.68C342.922 114.138 342.503 114.5 341.977 114.766C341.451 115.026 340.862 115.156 340.211 115.156C339.555 115.156 338.982 115.047 338.492 114.828C338.008 114.609 337.604 114.307 337.281 113.922C336.958 113.531 336.716 113.078 336.555 112.562C336.393 112.042 336.312 111.484 336.312 110.891V110.664C336.312 110.065 336.393 109.508 336.555 108.992C336.716 108.471 336.958 108.018 337.281 107.633C337.604 107.242 338.008 106.938 338.492 106.719C338.977 106.5 339.544 106.391 340.195 106.391C340.888 106.391 341.495 106.523 342.016 106.789C342.542 107.055 342.953 107.435 343.25 107.93C343.552 108.419 343.706 109 343.711 109.672H341.594C341.589 109.391 341.529 109.135 341.414 108.906C341.305 108.677 341.143 108.495 340.93 108.359C340.721 108.219 340.464 108.148 340.156 108.148C339.828 108.148 339.56 108.219 339.352 108.359C339.143 108.495 338.982 108.682 338.867 108.922C338.753 109.156 338.672 109.424 338.625 109.727C338.583 110.023 338.562 110.336 338.562 110.664V110.891C338.562 111.219 338.583 111.534 338.625 111.836C338.667 112.138 338.745 112.406 338.859 112.641C338.979 112.875 339.143 113.06 339.352 113.195C339.56 113.331 339.831 113.398 340.164 113.398ZM344.656 110.859V110.695C344.656 110.076 344.745 109.505 344.922 108.984C345.099 108.458 345.357 108.003 345.695 107.617C346.034 107.232 346.451 106.932 346.945 106.719C347.44 106.5 348.008 106.391 348.648 106.391C349.289 106.391 349.859 106.5 350.359 106.719C350.859 106.932 351.279 107.232 351.617 107.617C351.961 108.003 352.221 108.458 352.398 108.984C352.576 109.505 352.664 110.076 352.664 110.695V110.859C352.664 111.474 352.576 112.044 352.398 112.57C352.221 113.091 351.961 113.547 351.617 113.938C351.279 114.323 350.862 114.622 350.367 114.836C349.872 115.049 349.305 115.156 348.664 115.156C348.023 115.156 347.453 115.049 346.953 114.836C346.458 114.622 346.039 114.323 345.695 113.938C345.357 113.547 345.099 113.091 344.922 112.57C344.745 112.044 344.656 111.474 344.656 110.859ZM346.906 110.695V110.859C346.906 111.214 346.938 111.544 347 111.852C347.062 112.159 347.161 112.43 347.297 112.664C347.438 112.893 347.62 113.073 347.844 113.203C348.068 113.333 348.341 113.398 348.664 113.398C348.977 113.398 349.245 113.333 349.469 113.203C349.693 113.073 349.872 112.893 350.008 112.664C350.143 112.43 350.242 112.159 350.305 111.852C350.372 111.544 350.406 111.214 350.406 110.859V110.695C350.406 110.352 350.372 110.029 350.305 109.727C350.242 109.419 350.141 109.148 350 108.914C349.865 108.674 349.685 108.487 349.461 108.352C349.237 108.216 348.966 108.148 348.648 108.148C348.331 108.148 348.06 108.216 347.836 108.352C347.617 108.487 347.438 108.674 347.297 108.914C347.161 109.148 347.062 109.419 347 109.727C346.938 110.029 346.906 110.352 346.906 110.695ZM356.297 108.297V115H354.039V106.547H356.156L356.297 108.297ZM355.984 110.477H355.359C355.359 109.888 355.43 109.346 355.57 108.852C355.716 108.352 355.927 107.919 356.203 107.555C356.484 107.185 356.831 106.898 357.242 106.695C357.654 106.492 358.13 106.391 358.672 106.391C359.047 106.391 359.391 106.448 359.703 106.562C360.016 106.672 360.284 106.846 360.508 107.086C360.737 107.32 360.914 107.628 361.039 108.008C361.164 108.383 361.227 108.833 361.227 109.359V115H358.977V109.609C358.977 109.224 358.924 108.927 358.82 108.719C358.716 108.51 358.568 108.365 358.375 108.281C358.188 108.198 357.961 108.156 357.695 108.156C357.404 108.156 357.148 108.216 356.93 108.336C356.716 108.456 356.539 108.622 356.398 108.836C356.258 109.044 356.154 109.289 356.086 109.57C356.018 109.852 355.984 110.154 355.984 110.477ZM361.016 110.219L360.211 110.32C360.211 109.768 360.279 109.255 360.414 108.781C360.555 108.307 360.76 107.891 361.031 107.531C361.307 107.172 361.648 106.893 362.055 106.695C362.461 106.492 362.93 106.391 363.461 106.391C363.867 106.391 364.237 106.451 364.57 106.57C364.904 106.685 365.188 106.87 365.422 107.125C365.661 107.375 365.844 107.703 365.969 108.109C366.099 108.516 366.164 109.013 366.164 109.602V115H363.906V109.602C363.906 109.211 363.854 108.914 363.75 108.711C363.651 108.503 363.505 108.359 363.312 108.281C363.125 108.198 362.901 108.156 362.641 108.156C362.37 108.156 362.133 108.211 361.93 108.32C361.727 108.424 361.557 108.57 361.422 108.758C361.286 108.945 361.185 109.164 361.117 109.414C361.049 109.659 361.016 109.927 361.016 110.219ZM370.281 106.547V115H368.023V106.547H370.281ZM367.883 104.344C367.883 104.016 367.997 103.745 368.227 103.531C368.456 103.318 368.763 103.211 369.148 103.211C369.529 103.211 369.833 103.318 370.062 103.531C370.297 103.745 370.414 104.016 370.414 104.344C370.414 104.672 370.297 104.943 370.062 105.156C369.833 105.37 369.529 105.477 369.148 105.477C368.763 105.477 368.456 105.37 368.227 105.156C367.997 104.943 367.883 104.672 367.883 104.344ZM374.344 108.352V115H372.094V106.547H374.203L374.344 108.352ZM374.016 110.477H373.406C373.406 109.852 373.487 109.289 373.648 108.789C373.81 108.284 374.036 107.854 374.328 107.5C374.62 107.141 374.966 106.867 375.367 106.68C375.773 106.487 376.227 106.391 376.727 106.391C377.122 106.391 377.484 106.448 377.812 106.562C378.141 106.677 378.422 106.859 378.656 107.109C378.896 107.359 379.078 107.69 379.203 108.102C379.333 108.513 379.398 109.016 379.398 109.609V115H377.133V109.602C377.133 109.227 377.081 108.935 376.977 108.727C376.872 108.518 376.719 108.372 376.516 108.289C376.318 108.201 376.073 108.156 375.781 108.156C375.479 108.156 375.216 108.216 374.992 108.336C374.773 108.456 374.591 108.622 374.445 108.836C374.305 109.044 374.198 109.289 374.125 109.57C374.052 109.852 374.016 110.154 374.016 110.477ZM386.461 106.547H388.5V114.719C388.5 115.49 388.328 116.143 387.984 116.68C387.646 117.221 387.172 117.63 386.562 117.906C385.953 118.188 385.245 118.328 384.438 118.328C384.083 118.328 383.708 118.281 383.312 118.188C382.922 118.094 382.547 117.948 382.188 117.75C381.833 117.552 381.536 117.302 381.297 117L382.289 115.672C382.549 115.974 382.852 116.208 383.195 116.375C383.539 116.547 383.919 116.633 384.336 116.633C384.742 116.633 385.086 116.557 385.367 116.406C385.648 116.26 385.865 116.044 386.016 115.758C386.167 115.477 386.242 115.135 386.242 114.734V108.5L386.461 106.547ZM380.773 110.875V110.711C380.773 110.065 380.852 109.479 381.008 108.953C381.169 108.422 381.396 107.966 381.688 107.586C381.984 107.206 382.344 106.911 382.766 106.703C383.188 106.495 383.664 106.391 384.195 106.391C384.758 106.391 385.229 106.495 385.609 106.703C385.99 106.911 386.302 107.208 386.547 107.594C386.792 107.974 386.982 108.424 387.117 108.945C387.258 109.461 387.367 110.026 387.445 110.641V111C387.367 111.589 387.25 112.135 387.094 112.641C386.938 113.146 386.732 113.589 386.477 113.969C386.221 114.344 385.904 114.635 385.523 114.844C385.148 115.052 384.701 115.156 384.18 115.156C383.659 115.156 383.188 115.049 382.766 114.836C382.349 114.622 381.992 114.323 381.695 113.938C381.398 113.552 381.169 113.099 381.008 112.578C380.852 112.057 380.773 111.49 380.773 110.875ZM383.023 110.711V110.875C383.023 111.224 383.057 111.549 383.125 111.852C383.193 112.154 383.297 112.422 383.438 112.656C383.583 112.885 383.763 113.065 383.977 113.195C384.195 113.32 384.453 113.383 384.75 113.383C385.161 113.383 385.497 113.297 385.758 113.125C386.018 112.948 386.214 112.706 386.344 112.398C386.474 112.091 386.549 111.737 386.57 111.336V110.312C386.56 109.984 386.516 109.69 386.438 109.43C386.359 109.164 386.25 108.938 386.109 108.75C385.969 108.562 385.786 108.417 385.562 108.312C385.339 108.208 385.073 108.156 384.766 108.156C384.469 108.156 384.211 108.224 383.992 108.359C383.779 108.49 383.599 108.669 383.453 108.898C383.312 109.128 383.206 109.398 383.133 109.711C383.06 110.018 383.023 110.352 383.023 110.711Z" fill="#FE7308"/>
</svg>
